<?xml version="1.0" encoding="UTF-8"?>
<svg id="Layer_1" data-name="Layer 1" xmlns="http://www.w3.org/2000/svg" viewBox="0 0 1200 323.17">
  <defs>
    <style>
      .cls-1 {
        fill: #231f20;
        stroke-width: 0px;
      }
    </style>
  </defs>
  <path class="cls-1" d="M160.27,114.69c-14.18,11.07-25.49,26.46-29.69,44.15-4.56,19.23-.25,38.12,10.94,54.2,10.75,15.45,23.44,29.62,41.21,36.83,8.8,3.57,18.1,5.49,27.46,6.92,9.84,1.5,19.81,2.73,29.79,2.26,18.24-.86,34.88-7.85,47.73-20.91,12.82-13.02,20.66-30.11,24.75-47.75s7.34-40.17,1.2-58.5c-5.65-16.86-18.11-30.69-32.87-40.26-35.48-23-82.32-18.54-115.5,6.45-3.26,2.46-4.86,6.45-2.69,10.26,1.83,3.21,7.03,5.12,10.26,2.69,25.07-18.89,58.25-25.66,87.75-13.2,13.43,5.67,25.81,15.2,33.55,27.67,8.92,14.36,8.55,30.79,6.37,47.03-3.87,28.88-17.37,61.85-48.46,69.79-15.71,4.01-33.32,1.4-48.94-1.96-8.03-1.73-15.93-4.13-23.02-8.37-6.77-4.05-12.28-9.76-17.33-15.75-11.79-13.98-21.35-29.5-18.69-48.54,2.43-17.41,13.22-31.8,26.77-42.39,3.22-2.51,2.59-7.96,0-10.61-3.12-3.19-7.43-2.48-10.61,0h0Z"/>
  <path class="cls-1" d="M120.59,57.89c6.19,12.41,12.82,24.58,19.89,36.51,4.92,8.3,17.89.76,12.95-7.57-7.07-11.93-13.7-24.1-19.89-36.51-4.31-8.64-17.25-1.05-12.95,7.57h0Z"/>
  <path class="cls-1" d="M211.16,46.45l-3.54,22.88c-.62,4,1.02,8.07,5.24,9.23,3.55.98,8.6-1.21,9.23-5.24,1.18-7.63,2.36-15.25,3.54-22.88.62-4-1.02-8.07-5.24-9.23-3.55-.98-8.6,1.21-9.23,5.24h0Z"/>
  <path class="cls-1" d="M274.14,55.05c-5.9,7.27-12.46,13.91-19.67,19.89-3.12,2.59-2.68,7.93,0,10.61,3.09,3.09,7.48,2.6,10.61,0,7.21-5.99,13.77-12.62,19.67-19.89,2.55-3.14,3.07-7.53,0-10.61-2.64-2.64-8.04-3.16-10.61,0h0Z"/>
  <path class="cls-1" d="M310.89,96.1l-6.27,4.82c-1.62,1.25-2.88,2.43-3.45,4.48-.49,1.8-.27,4.19.76,5.78s2.57,3.01,4.48,3.45,4.22.44,5.78-.76l6.27-4.82c1.62-1.25,2.88-2.43,3.45-4.48.49-1.8.27-4.19-.76-5.78s-2.57-3.01-4.48-3.45-4.22-.44-5.78.76h0Z"/>
  <path class="cls-1" d="M318.81,166c14.73-.44,29.06,1.63,43.08,6.17,9.21,2.98,13.15-11.5,3.99-14.46-15.18-4.92-31.12-7.17-47.07-6.7-9.63.28-9.67,15.29,0,15h0Z"/>
  <path class="cls-1" d="M302.91,203.07c13.39,9.55,26.01,20.05,37.92,31.39,6.99,6.66,17.61-3.93,10.61-10.61-12.83-12.22-26.53-23.45-40.96-33.74-7.88-5.61-15.37,7.39-7.57,12.95h0Z"/>
  <path class="cls-1" d="M257.74,244.03c.36,13.53,2.15,26.97,5.34,40.12,2.27,9.38,16.74,5.41,14.46-3.99-2.89-11.9-4.48-23.9-4.8-36.13-.26-9.63-15.26-9.67-15,0h0Z"/>
  <path class="cls-1" d="M176.47,258.52c-8.06,6.94-16.11,13.88-24.17,20.83-7.33,6.31,3.32,16.88,10.61,10.61,8.06-6.94,16.11-13.88,24.17-20.83,7.33-6.31-3.32-16.88-10.61-10.61h0Z"/>
  <path class="cls-1" d="M99.19,249.06c11.4-7.06,22.79-14.12,34.19-21.18,8.19-5.07.67-18.06-7.57-12.95-11.4,7.06-22.79,14.12-34.19,21.18-8.19,5.07-.67,18.06,7.57,12.95h0Z"/>
  <path class="cls-1" d="M91.27,145.44c6.58.63,13.06,1.73,19.5,3.2,9.4,2.14,13.41-12.32,3.99-14.46-7.75-1.76-15.58-2.97-23.49-3.73-4.04-.39-7.5,3.72-7.5,7.5,0,4.38,3.45,7.11,7.5,7.5h0Z"/>
  <path class="cls-1" d="M317.77,104.91c9.08-6.02,18.54-11.38,28.37-16.07,8.71-4.16,1.1-17.1-7.57-12.95-9.83,4.7-19.29,10.06-28.37,16.07-8.01,5.31-.51,18.31,7.57,12.95h0Z"/>
  <path class="cls-1" d="M199.29,154.49c2.27-2.09,5.64-1.59,7.83.84,6.49,7.17,17.07-3.46,10.61-10.61-7.6-8.4-20.91-8.33-29.04-.84-7.11,6.56,3.52,17.15,10.61,10.61h0Z"/>
  <path class="cls-1" d="M252.63,154.46c.07-1.64,1.4-3.63,3.22-3.79,2.71-.24,3.8,2.63,4.09,4.74.55,4.02,5.69,6.21,9.23,5.24,4.33-1.19,5.79-5.2,5.24-9.23-1.25-9.1-10.23-16.27-19.36-15.65-9.87.68-17,9.07-17.41,18.68-.41,9.65,14.59,9.63,15,0h0Z"/>
  <path class="cls-1" d="M201.03,189.06c2.16,9.04,10.24,14.98,19.17,16.29,10.59,1.55,20.25-3.7,28.83-9.28,8.06-5.24.55-18.24-7.57-12.95-5.51,3.58-23.04,14.22-25.97,1.96-2.24-9.38-16.71-5.41-14.46,3.99h0Z"/>
</svg>