<?xml version="1.0" encoding="UTF-8"?>
<svg id="Layer_1" data-name="Layer 1" xmlns="http://www.w3.org/2000/svg" viewBox="0 0 1200 323.17">
  <defs>
    <style>
      .cls-1 {
        fill: #231f20;
        stroke-width: 0px;
      }
    </style>
  </defs>
  <path class="cls-1" d="M648.89,237.49c17.16-5.99,32.55-16.28,42.79-31.51,10.87-16.16,13.33-35.54,8.43-54.2-4.68-17.82-12.23-36.35-26.29-48.81-13.89-12.31-32.16-21.58-49.7-27.37-18.18-6.01-36.83-5.11-54.13,3.16-16.32,7.81-29.19,21.38-38.84,36.46-10.05,15.71-19.37,34.59-20.59,53.46-1.2,18.55,6.71,36.84,17.97,51.19,26.33,33.56,72.29,44.21,112.06,31.12,9.13-3,5.22-17.49-3.99-14.46-29.94,9.85-63.95,5.2-87.6-16.54-10.91-10.03-19.26-23-22.44-37.59-3.58-16.39,2.76-32.13,10.1-46.53,13.35-26.21,37.42-52.98,69.82-49.04,15.9,1.93,31.44,10.03,44.94,18.28s23.03,19.34,28.84,34.4c6.53,16.94,11.04,34.51,2.65,51.69-7.59,15.55-21.91,26.22-38,31.85-9.06,3.16-5.16,17.66,3.99,14.46h0Z"/>
  <path class="cls-1" d="M669.43,303.03c-1.88-13.74-4.25-27.4-7.11-40.97-1.99-9.44-16.45-5.45-14.46,3.99,2.86,13.57,5.23,27.23,7.11,40.97.55,4,5.7,6.23,9.23,5.24,4.33-1.21,5.79-5.18,5.24-9.23h0Z"/>
  <path class="cls-1" d="M580.37,284.83l10.7-20.53c4.46-8.55-8.48-16.14-12.95-7.57l-10.7,20.53c-4.46,8.55,8.48,16.14,12.95,7.57h0Z"/>
  <path class="cls-1" d="M523.69,256.62c7.38-4.63,15.09-8.63,23.23-11.76,3.76-1.45,6.41-5.05,5.24-9.23-1.01-3.61-5.41-6.71-9.23-5.24-9.35,3.6-18.32,7.94-26.81,13.27-8.16,5.12-.64,18.1,7.57,12.95h0Z"/>
  <path class="cls-1" d="M502.1,206.08c2.5-.85,4.99-1.7,7.49-2.55,3.71-1.26,6.54-5.21,5.24-9.23-1.19-3.68-5.25-6.59-9.23-5.24-2.5.85-4.99,1.7-7.49,2.55-3.71,1.26-6.54,5.21-5.24,9.23,1.19,3.68,5.25,6.59,9.23,5.24h0Z"/>
  <path class="cls-1" d="M516.15,137.33c-14.08-4.31-27.03-11.03-38.83-19.82-3.27-2.44-8.35-.51-10.26,2.69-2.28,3.8-.54,7.85,2.69,10.26,12.81,9.54,27.14,16.66,42.41,21.33,9.25,2.83,13.21-11.64,3.99-14.46h0Z"/>
  <path class="cls-1" d="M544.34,108.59c-9.99-13.86-18.96-28.38-26.88-43.51-4.48-8.55-17.43-.98-12.95,7.57,7.93,15.13,16.9,29.65,26.88,43.51,2.39,3.31,6.5,4.83,10.26,2.69,3.27-1.86,5.05-6.99,2.69-10.26h0Z"/>
  <path class="cls-1" d="M599.6,82.77c4.02-12.95,6.51-26.23,7.72-39.73.86-9.61-14.15-9.55-15,0-1.08,12.17-3.56,24.08-7.18,35.74-2.87,9.24,11.61,13.19,14.46,3.99h0Z"/>
  <path class="cls-1" d="M679.76,96.08c9.86-3.99,19.72-7.97,29.58-11.96,3.74-1.51,6.42-5,5.24-9.23-1-3.55-5.44-6.77-9.23-5.24l-29.58,11.96c-3.74,1.51-6.42,5-5.24,9.23,1,3.55,5.44,6.77,9.23,5.24h0Z"/>
  <path class="cls-1" d="M750.74,129.49c-13.06,3.02-26.12,6.05-39.18,9.07-9.4,2.18-5.42,16.64,3.99,14.46l39.18-9.07c9.4-2.18,5.42-16.64-3.99-14.46h0Z"/>
  <path class="cls-1" d="M726.81,230.66c-6.64-2.98-13.05-6.37-19.24-10.19-8.24-5.07-15.79,7.9-7.57,12.95,6.2,3.82,12.6,7.21,19.24,10.19,3.69,1.66,8.06,1.07,10.26-2.69,1.88-3.21,1.02-8.59-2.69-10.26h0Z"/>
  <path class="cls-1" d="M497.43,195.76c-9.88,2.61-19.89,4.63-30.04,5.84-4.02.48-7.5,3.1-7.5,7.5,0,3.68,3.45,7.98,7.5,7.5,11.49-1.37,22.83-3.42,34.02-6.38,9.33-2.46,5.37-16.93-3.99-14.46h0Z"/>
  <path class="cls-1" d="M578.57,137c9.65,0,9.67-15,0-15s-9.67,15,0,15h0Z"/>
  <path class="cls-1" d="M637.26,139.17c9.65,0,9.67-15,0-15s-9.67,15,0,15h0Z"/>
  <path class="cls-1" d="M584,194.56c9.77-1.2,19.53-1.51,29.35-.95s9.61-14.45,0-15-19.58-.25-29.35.95c-4.02.49-7.5,3.09-7.5,7.5,0,3.67,3.45,8,7.5,7.5h0Z"/>
</svg>