<?xml version="1.0" encoding="UTF-8"?>
<svg id="Layer_1" data-name="Layer 1" xmlns="http://www.w3.org/2000/svg" viewBox="0 0 1200 323.17">
  <defs>
    <style>
      .cls-1 {
        fill: #231f20;
        stroke-width: 0px;
      }
    </style>
  </defs>
  <path class="cls-1" d="M1051.71,117.59c-5.61-17.31-15.64-32.83-30.63-43.42-15.93-11.25-35.25-14-54.01-9.53-17.95,4.28-36.56,11.47-49.35,25.25-12.62,13.61-22.23,31.72-28.42,49.11-6.43,18.08-5.82,36.69,2.06,54.17,7.44,16.51,20.77,29.61,35.63,39.6,15.5,10.43,34.14,20.08,53,21.71s36.88-5.77,51.25-16.67c34.18-25.94,46.1-71.15,33.79-111.62-2.8-9.21-17.28-5.28-14.46,3.99,9.19,30.2,3.58,64.01-18.7,87.16-10.27,10.67-23.49,18.69-38.13,21.51-16.46,3.17-32.07-3.63-46.27-11.28-25.74-13.87-52.05-38.61-47.31-70.76,2.35-15.95,10.78-31.32,19.39-44.72,8.72-13.58,19.94-22.48,35.12-27.94,17.13-6.16,34.72-10.17,51.72-1.35,15.38,7.99,25.61,22.56,30.87,38.8,2.96,9.15,17.45,5.23,14.46-3.99h0Z"/>
  <path class="cls-1" d="M1119.58,98.48c-14.44,1.64-28.82,3.77-43.11,6.44-9.48,1.77-5.46,16.23,3.99,14.46,12.97-2.43,26.01-4.42,39.12-5.91,4.02-.46,7.5-3.12,7.5-7.5,0-3.7-3.45-7.96-7.5-7.5h0Z"/>
  <path class="cls-1" d="M1097.38,187.24c-6.76-3.72-13.52-7.44-20.28-11.16-8.46-4.66-16.04,8.29-7.57,12.95,6.76,3.72,13.52,7.44,20.28,11.16,8.46,4.66,16.04-8.29,7.57-12.95h0Z"/>
  <path class="cls-1" d="M1067.96,243.21c-4.47-7.5-8.24-15.28-11.19-23.5-3.24-9.02-17.74-5.13-14.46,3.99,3.38,9.42,7.57,18.49,12.7,27.09,4.94,8.28,17.91.75,12.95-7.57h0Z"/>
  <path class="cls-1" d="M1016.97,263.63c-.79-2.51-1.59-5.03-2.38-7.54-1.18-3.74-5.27-6.52-9.23-5.24-3.75,1.21-6.5,5.22-5.24,9.23.79,2.51,1.59,5.03,2.38,7.54,1.18,3.74,5.27,6.52,9.23,5.24,3.75-1.21,6.5-5.22,5.24-9.23h0Z"/>
  <path class="cls-1" d="M948.56,248.34c-4.39,13.25-10.95,25.82-19.56,36.83-2.51,3.21-3.08,7.46,0,10.61,2.57,2.62,8.12,3.19,10.61,0,10.29-13.16,18.16-27.57,23.42-43.45,3.04-9.18-11.44-13.12-14.46-3.99h0Z"/>
  <path class="cls-1" d="M920.37,219.42c-14.08,9.67-28.8,18.31-44.11,25.89-8.65,4.28-1.06,17.23,7.57,12.95,15.31-7.58,30.03-16.22,44.11-25.89,7.91-5.43.41-18.44-7.57-12.95h0Z"/>
  <path class="cls-1" d="M895.79,163.47c-12.88-4.32-26.06-7.06-39.55-8.57-4.03-.45-7.5,3.77-7.5,7.5,0,4.43,3.46,7.05,7.5,7.5,12.12,1.36,24.01,4.16,35.56,8.04,9.17,3.08,13.11-11.41,3.99-14.46h0Z"/>
  <path class="cls-1" d="M911.04,83.51c-3.76-9.95-7.52-19.89-11.28-29.84-3.38-8.94-17.89-5.07-14.46,3.99,3.76,9.95,7.52,19.89,11.28,29.84,3.38,8.94,17.89,5.07,14.46-3.99h0Z"/>
  <path class="cls-1" d="M946.14,13.63c2.73,13.13,5.45,26.25,8.18,39.38,1.96,9.45,16.42,5.45,14.46-3.99l-8.18-39.38c-1.96-9.45-16.42-5.45-14.46,3.99h0Z"/>
  <path class="cls-1" d="M1046.61,39.84c-3.13,6.57-6.67,12.9-10.62,19.01-5.26,8.13,7.72,15.65,12.95,7.57,3.96-6.11,7.49-12.44,10.62-19.01,1.74-3.65,1.01-8.1-2.69-10.26-3.27-1.91-8.51-.98-10.26,2.69h0Z"/>
  <path class="cls-1" d="M1006.64,268.39c2.38,9.95,4.13,19.98,5.11,30.17.39,4.03,3.17,7.5,7.5,7.5,3.75,0,7.89-3.44,7.5-7.5-1.11-11.51-2.95-22.91-5.65-34.15-2.25-9.38-16.72-5.41-14.46,3.99h0Z"/>
  <path class="cls-1" d="M941.96,122.11c5.94,2.84,10.34,7.04,13.35,12.9,1.85,3.6,6.9,4.66,10.26,2.69,3.66-2.14,4.55-6.65,2.69-10.26-4.06-7.89-10.72-14.45-18.73-18.28-3.65-1.75-8.1-1.01-10.26,2.69-1.92,3.27-.98,8.51,2.69,10.26h0Z"/>
  <path class="cls-1" d="M1011,109.62c-5.85,4.53-10.76,9.8-15.26,15.65-2.47,3.21-.49,8.4,2.69,10.26,3.87,2.26,7.78.53,10.26-2.69,3.67-4.76,8.18-8.95,12.92-12.62,3.2-2.48,2.61-8,0-10.61-3.16-3.16-7.39-2.49-10.61,0h0Z"/>
  <path class="cls-1" d="M963.61,188.61c.65-4.25,10.91-8.23,14.74-8.95,4.72-.88,10.42,1.16,9.72,6.73-.51,4.03,3.81,7.5,7.5,7.5,4.47,0,6.99-3.46,7.5-7.5,1.61-12.83-11.5-22.61-23.38-21.93-6.79.38-13.13,3.13-18.84,6.7-5.09,3.18-10.72,7.09-11.7,13.47-.62,4.03,1.02,8.02,5.24,9.23,3.54,1.01,8.61-1.24,9.23-5.24h0Z"/>
</svg>