<?xml version="1.0" encoding="utf-8"?>
<!-- Generator: Adobe Illustrator 28.4.1, SVG Export Plug-In . SVG Version: 6.00 Build 0)  -->
<svg version="1.1" id="Layer_1" xmlns="http://www.w3.org/2000/svg" xmlns:xlink="http://www.w3.org/1999/xlink" x="0px" y="0px"
	 viewBox="0 0 1200 250" style="enable-background:new 0 0 1200 250;" xml:space="preserve">
<style type="text/css">
	.st0{fill:#FFFFFF;}
</style>
<rect width="1200" height="250"/>
<rect y="74.5" class="st0" width="1200" height="117.8"/>
<g>
	<path class="st0" d="M444.1,219.2c0,2.1-0.4,4.1-1.2,6.2c-0.8,2.1-1.9,3.7-3.3,5c-1.7,1.5-3.5,2.5-5.4,3s-4.3,0.7-7,0.7h-4.7v13.4
		H412v-42.7h14c1.8,0,3.4,0.1,4.7,0.1c1.3,0.1,2.7,0.4,4.4,0.9s3,1.2,4.1,2.1C442.5,210.8,444.1,214.5,444.1,219.2L444.1,219.2z
		 M433.7,219.4c0-2-0.6-3.3-2-4c-1.3-0.7-3.1-1-5.2-1h-4v10.1h4.4c2.1,0,3.8-0.4,5-1.1C433.1,222.7,433.7,221.4,433.7,219.4
		L433.7,219.4z"/>
	<path class="st0" d="M493,226.2c0,6.3-2.2,11.5-6.6,15.8s-9.7,6.4-16,6.4s-11.4-2.1-15.8-6.3c-4.4-4.2-6.6-9.3-6.6-15.4
		c0-3.2,0.6-6.3,1.7-9.1c0.6-1.5,1.5-3.1,2.8-4.8c4.5-5.8,10.5-8.8,18-8.8c6.3,0,11.6,2.1,16,6.4S493,219.9,493,226.2L493,226.2z
		 M482.1,226.2c0-3.4-1.1-6.4-3.3-8.9s-5-3.8-8.3-3.8s-6.2,1.2-8.4,3.7s-3.3,5.4-3.3,8.8s1.1,6.5,3.3,9s5,3.7,8.5,3.7
		s6.1-1.2,8.2-3.7S482.1,229.6,482.1,226.2z"/>
	<path class="st0" d="M531.8,247.5h-12.5l-9.9-13.8h-0.1v13.8h-10.4v-42.7h13.5c1.9,0,3.5,0,4.7,0.1c1.2,0.1,2.6,0.4,4.3,0.8
		c1.6,0.5,3,1.2,4.2,2.1c3.5,2.8,5.2,6.7,5.2,11.6c0,3.4-1,6.3-2.8,8.9c-1.9,2.5-4.5,4.1-7.8,4.6L531.8,247.5L531.8,247.5z
		 M520.4,220.2c0-2-0.7-3.4-2-4.4s-3-1.4-5-1.4h-4v11.9h3.9c2.2,0,3.9-0.5,5.2-1.5S520.4,222.2,520.4,220.2L520.4,220.2z"/>
	<path class="st0" d="M559.5,214.4h-8.4v33.1h-10.9v-33.1h-8.4v-9.6h27.7V214.4z"/>
	<path class="st0" d="M591.5,247.5h-10.9v-6.2h-12.3l-3.8,6.2h-13.1l29.3-42.7h10.8L591.5,247.5L591.5,247.5z M580.6,232.7v-11.8
		h-0.1l-7,11.8L580.6,232.7L580.6,232.7z"/>
	<path class="st0" d="M623,247.5h-23.5v-42.7h10.9v33.1H623L623,247.5L623,247.5z"/>
	<path class="st0" d="M677.2,219.2c0,2.1-0.4,4.1-1.2,6.2s-1.9,3.7-3.3,5c-1.7,1.5-3.5,2.5-5.4,3s-4.3,0.7-7,0.7h-4.7v13.4h-10.4
		v-42.7h14c1.8,0,3.4,0.1,4.7,0.1c1.3,0.1,2.7,0.4,4.4,0.9s3,1.2,4.1,2.1C675.5,210.8,677.2,214.5,677.2,219.2L677.2,219.2z
		 M666.8,219.4c0-2-0.7-3.3-2-4c-1.3-0.7-3.1-1-5.2-1h-4v10.1h4.4c2.1,0,3.8-0.4,5-1.1C666.2,222.7,666.8,221.4,666.8,219.4
		L666.8,219.4z"/>
	<path class="st0" d="M707.3,247.5h-10.9v-6.2h-12.3l-3.8,6.2h-13.1l29.3-42.7h10.8L707.3,247.5L707.3,247.5z M696.4,232.7v-11.8
		h-0.1l-7,11.8L696.4,232.7L696.4,232.7z"/>
	<path class="st0" d="M758.6,225.5c0,6.5-2.2,12-6.5,16.4c-4.3,4.4-9.8,6.5-16.3,6.5s-11.7-2.1-16.1-6.5c-4.4-4.3-6.6-9.6-6.6-15.9
		s2.2-11.5,6.7-15.7c4.4-4.2,9.8-6.3,16.2-6.3c4.7,0,9.2,1.4,13.3,4.2c4.1,2.8,6.8,6.4,8.1,10.9h-12.2c-2.1-3.7-5.2-5.5-9.4-5.5
		c-3.4,0-6.2,1.2-8.4,3.6c-2.2,2.4-3.3,5.3-3.3,8.8s1.1,6.6,3.2,9.1s5,3.7,8.5,3.7c2.5,0,4.6-0.6,6.5-1.7c1.8-1.1,3.1-2.9,3.8-5.1
		h-12.7v-8.7h25.3C758.6,223.7,758.6,224.5,758.6,225.5L758.6,225.5z"/>
	<path class="st0" d="M788,247.5h-23.7v-42.7H788v9.6h-13.3v6.6h12.9v9.6h-12.9v7.3H788V247.5L788,247.5z"/>
</g>
<g>
	<path class="st0" d="M39.3,20.5c3.8,3.8,5.7,9,5.7,15.7s-1.9,12-5.7,15.7s-9.1,5.7-15.9,5.7H11.4V14.8h12.1
		C30.2,14.8,35.5,16.7,39.3,20.5z M43.3,36.3c0-6.2-1.8-11.1-5.2-14.7c-3.5-3.5-8.4-5.3-14.6-5.3H13.2v39.7h10.4
		c6.2,0,11.1-1.7,14.6-5.2C41.6,47.3,43.3,42.5,43.3,36.3L43.3,36.3z"/>
	<path class="st0" d="M75.4,57.6H52V14.8h23.5v1.6H53.7v18.9h21.8v1.6H53.7V56h21.8V57.6L75.4,57.6z"/>
	<path class="st0" d="M106.6,46.4c0,3.4-1.2,6.3-3.8,8.6c-2.5,2.3-5.4,3.4-8.7,3.4c-1.3,0-2.7-0.2-4.1-0.7s-2.6-1.1-3.8-2
		c-1.2-0.9-2.2-2.1-3-3.6s-1.3-3.3-1.4-5.2h1.7c0.2,1.9,0.8,3.6,1.6,5c0.8,1.4,1.8,2.5,2.9,3.1s2.2,1.2,3.2,1.5s2,0.4,2.9,0.4
		c2.8,0,5.3-1,7.5-2.9s3.3-4.4,3.3-7.3c0-1.5-0.3-2.8-0.8-4s-1.1-2.1-1.8-2.8s-1.6-1.3-2.8-1.9s-2.1-1-2.8-1.2
		c-0.7-0.2-1.6-0.4-2.8-0.8s-2.1-0.5-2.7-0.7c-0.6-0.2-1.5-0.6-2.8-1.2s-2.2-1.2-2.9-1.9c-0.7-0.7-1.3-1.6-1.9-2.8
		c-0.6-1.2-0.9-2.6-0.9-4.1v-0.2c0-3.4,1.1-6,3.4-8c2.3-2,5-3,8.2-3c2.7,0,5.2,0.8,7.3,2.5c2.1,1.7,3.4,4.2,3.8,7.4h-1.7
		c-1-5.6-4.2-8.4-9.4-8.4c-2.8,0-5.1,0.9-7,2.6s-2.8,4-2.8,6.7c0,1.3,0.2,2.5,0.7,3.5s1,1.8,1.6,2.5c0.6,0.6,1.5,1.2,2.7,1.8
		c1.2,0.6,2.2,1,3,1.2s2,0.6,3.5,1c3.1,0.8,5.5,1.8,7.1,3.1C105.3,40.1,106.5,42.9,106.6,46.4L106.6,46.4z"/>
	<path class="st0" d="M142.8,57.6H141V16.4h-9.5v-1.6h11.2V57.6z"/>
	<path class="st0" d="M187,43.7c0,4.1-1.4,7.6-4.3,10.4s-6.2,4.2-10.1,4.2c-3.2,0-6.3-1.2-9.2-3.5s-4.6-5.6-5.1-9.8h1.7
		c0.4,3.6,1.9,6.5,4.4,8.6c2.5,2.1,5.2,3.2,8.2,3.2c3.4,0,6.3-1.3,8.8-3.8c2.5-2.5,3.7-5.6,3.7-9.1s-1.2-6.8-3.8-9.3
		s-5.4-3.8-8.8-3.8c-3.8,0-7.1,1.7-9.8,5l-1.5-0.4l3.9-20.5h19.2v1.6h-17.8l-3.1,16.1c3-2.2,6-3.4,9.2-3.4c4.1,0,7.4,1.5,10.1,4.3
		S187,39.8,187,43.7L187,43.7z"/>
	<path class="st0" d="M217.1,16.4L198,57.6h-1.8l19-41.2h-20.9v-1.6h22.7L217.1,16.4L217.1,16.4z"/>
	<path class="st0" d="M250.2,46.2c0,5.2-2.2,8.7-6.8,10.5c-1.6,0.7-3.9,1-6.8,1h-10.7V14.8h9.1c3.1,0,5.6,0.5,7.5,1.6
		c3.4,1.8,5,4.9,5,9.2s-2,7.6-5.9,9.3V35c1.8,0.5,3.3,1.3,4.6,2.3c1.2,1,2.1,2.1,2.7,3.3s0.9,2.2,1,3.1
		C250.1,44.6,250.2,45.4,250.2,46.2L250.2,46.2z M245.8,25.3c0-1.8-0.4-3.4-1.3-4.8s-1.9-2.4-3.1-2.9c-1.5-0.9-3.7-1.3-6.5-1.3h-7.3
		v18h7.8c2.7,0,4.7-0.4,6.1-1.1C244.3,31.7,245.8,29,245.8,25.3z M248.4,46.2c0-2.1-0.5-4-1.6-5.6c-1-1.6-2.4-2.8-4.2-3.6
		c-1.6-0.7-4.1-1-7.3-1h-7.8V56h9c2.5,0,4.6-0.3,6.1-0.9C246.5,53.6,248.4,50.6,248.4,46.2L248.4,46.2z"/>
	<path class="st0" d="M284,42.5h-15.4v-1.7H284V42.5z"/>
	<path class="st0" d="M306.3,57.6h-1.7V14.8h1.7V57.6z"/>
	<path class="st0" d="M343.4,57.6h-1.6V41.4c0-4.9-1.2-8.5-3.8-10.8c-2.2-1.9-5-2.9-8.7-2.9c-3.9,0-6.9,1.1-9.1,3.3
		c-2.2,2.2-3.3,5.2-3.3,9v17.6h-1.6V27h1.6v5.9h0.1c0.9-2.1,2.5-3.7,4.8-4.9c2.3-1.2,4.7-1.8,7.3-1.8c4,0,7.3,1,9.8,3.1
		c3,2.5,4.5,6.6,4.5,12.1V57.6L343.4,57.6z"/>
	<path class="st0" d="M364.5,28.5h-7.9v29.2H355V28.5h-6.8V27h6.8V14.8h1.6V27h7.9C364.5,27,364.5,28.5,364.5,28.5z"/>
	<path class="st0" d="M399,41.6l-0.1,0.9h-30.5c0,2.4,0.5,4.5,1.5,6.5c0.9,1.9,2.1,3.4,3.6,4.5s3,2,4.6,2.5c1.6,0.6,3.2,0.9,4.8,0.9
		c2.9,0,5.5-0.7,7.8-2.1s4.1-3.4,5.3-6h1.8c-1.4,3.2-3.4,5.5-6,7.2c-2.7,1.6-5.6,2.4-8.9,2.4c-4.7,0-8.5-1.6-11.6-4.6
		c-3-3-4.6-6.8-4.6-11.4s1.5-8.4,4.7-11.5c3.1-3.1,7-4.6,11.5-4.6c4.3,0,8,1.4,11.1,4.2S398.8,37,399,41.6L399,41.6z M397.4,41
		c-0.1-3.6-1.7-6.7-4.5-9.3s-6.1-3.9-9.7-3.9c-3.9,0-7.3,1.2-10.1,3.8s-4.3,5.7-4.6,9.5L397.4,41L397.4,41z"/>
	<path class="st0" d="M417.7,27.8c-2.6,0.1-4.8,0.8-6.7,2.1c-1.7,1.5-2.8,3.1-3.3,4.8c-0.5,1.7-0.8,3.8-0.8,6.3v16.6h-1.6V27h1.6
		v5.6h0.1c0.5-1.1,1.2-2,2-2.8s1.5-1.4,2.2-1.8c0.7-0.4,1.5-0.7,2.5-1c0.9-0.3,1.7-0.4,2.2-0.5s1.1-0.1,1.9-0.1L417.7,27.8
		L417.7,27.8z"/>
	<path class="st0" d="M451.8,57.6h-1.6V50h-0.1c-1.4,2.6-3.3,4.7-5.7,6.2s-5.3,2.2-8.5,2.2c-4.8,0-8.7-1.6-11.7-4.8s-4.5-7-4.5-11.3
		s1.5-8.2,4.5-11.3c3-3.2,6.9-4.7,11.6-4.7c3.5,0,6.5,0.9,9.1,2.6s4.3,3.7,5.1,6h0.1V27h1.6L451.8,57.6L451.8,57.6z M450.4,42.3
		c0-4.2-1.4-7.6-4.2-10.4c-2.8-2.8-6.2-4.2-10.4-4.2s-7.5,1.4-10.4,4.1c-2.8,2.7-4.2,6.2-4.2,10.5c0,3.8,1.3,7.2,3.9,10.2
		c2.6,3,6.2,4.4,10.8,4.4c4.2,0,7.6-1.4,10.3-4.2C449,49.8,450.4,46.3,450.4,42.3L450.4,42.3z"/>
	<path class="st0" d="M490.1,36.9h-1.8c-1-2.9-2.8-5.1-5.2-6.8s-5.2-2.4-8.2-2.4c-2.1,0-4,0.3-5.5,1c-1.6,0.6-3.2,1.7-4.8,3.1
		c-1.3,1.2-2.3,2.7-3.1,4.6c-0.8,1.9-1.2,3.9-1.2,5.9c0,4.2,1.4,7.7,4.2,10.5s6.3,4.1,10.3,4.1c3.3,0,6.1-0.9,8.6-2.6
		c2.4-1.7,4-3.8,4.9-6.3h1.8c-1.1,3.2-3,5.7-5.7,7.6s-5.9,2.8-9.5,2.8c-4.5,0-8.4-1.5-11.5-4.5c-3.1-3-4.7-6.8-4.7-11.5
		s1.5-8.4,4.6-11.5s6.9-4.7,11.5-4.7c3.3,0,6.4,0.9,9.2,2.8S489,33.5,490.1,36.9L490.1,36.9z"/>
	<path class="st0" d="M508.8,28.5h-7.9v29.2h-1.6V28.5h-6.8V27h6.8V14.8h1.6V27h7.9C508.8,27,508.8,28.5,508.8,28.5z"/>
	<path class="st0" d="M515.4,20.1h-1.6v-5.3h1.6V20.1z M515.4,57.6h-1.6V27h1.6V57.6z"/>
	<path class="st0" d="M548.6,27L536,57.6h-2.1L521.3,27h1.7l12,28.7L546.7,27H548.6L548.6,27z"/>
	<path class="st0" d="M582.2,41.6l-0.1,0.9h-30.5c0,2.4,0.5,4.5,1.5,6.5c0.9,1.9,2.2,3.4,3.6,4.5c1.5,1.1,3,2,4.6,2.5
		c1.6,0.6,3.2,0.9,4.8,0.9c2.8,0,5.5-0.7,7.8-2.1s4.1-3.4,5.3-6h1.8c-1.3,3.2-3.4,5.5-6,7.2s-5.6,2.4-8.9,2.4
		c-4.7,0-8.5-1.6-11.6-4.6s-4.6-6.8-4.6-11.4s1.5-8.4,4.7-11.5c3.1-3.1,7-4.6,11.5-4.6c4.3,0,8,1.4,11.1,4.2S582,37,582.2,41.6
		L582.2,41.6z M580.6,41c-0.2-3.6-1.7-6.7-4.5-9.3c-2.8-2.6-6.1-3.9-9.7-3.9c-3.9,0-7.3,1.2-10.1,3.8s-4.3,5.7-4.6,9.5L580.6,41
		L580.6,41z"/>
	<path class="st0" d="M649.5,57.6h-1.7V16.5h-0.1l-20.1,41.1h-1l-20.2-41.1h-0.1v41.1h-1.7V14.8h2.8l19.8,40l19.7-40h2.7L649.5,57.6
		L649.5,57.6z"/>
	<path class="st0" d="M688,41.6l-0.1,0.9h-30.5c0,2.4,0.5,4.5,1.5,6.5c0.9,1.9,2.2,3.4,3.6,4.5c1.5,1.1,3,2,4.6,2.5
		c1.6,0.6,3.2,0.9,4.8,0.9c2.8,0,5.5-0.7,7.8-2.1s4.1-3.4,5.3-6h1.8c-1.3,3.2-3.4,5.5-6,7.2s-5.6,2.4-8.9,2.4
		c-4.7,0-8.5-1.6-11.6-4.6s-4.6-6.8-4.6-11.4s1.5-8.4,4.7-11.5c3.1-3.1,7-4.6,11.5-4.6c4.3,0,8,1.4,11.1,4.2S687.8,37,688,41.6
		L688,41.6z M686.3,41c-0.2-3.6-1.7-6.7-4.5-9.3c-2.8-2.6-6.1-3.9-9.7-3.9c-3.9,0-7.3,1.2-10.1,3.8s-4.3,5.7-4.6,9.5L686.3,41
		L686.3,41z"/>
	<path class="st0" d="M724.2,57.6h-1.6V50h-0.1c-1.3,2.6-3.3,4.7-5.7,6.2s-5.3,2.2-8.5,2.2c-4.8,0-8.7-1.6-11.7-4.8s-4.5-7-4.5-11.3
		s1.5-8.2,4.5-11.3c3-3.2,6.9-4.7,11.7-4.7c3.5,0,6.5,0.9,9.1,2.6s4.3,3.7,5.2,6h0.1v-20h1.6L724.2,57.6L724.2,57.6z M722.8,42.3
		c0-4.2-1.4-7.6-4.2-10.4c-2.8-2.8-6.2-4.2-10.3-4.2s-7.5,1.4-10.3,4.1c-2.8,2.7-4.2,6.2-4.2,10.5c0,3.8,1.3,7.2,3.9,10.2
		c2.6,3,6.2,4.4,10.8,4.4c4.2,0,7.6-1.4,10.3-4.2C721.4,49.8,722.8,46.3,722.8,42.3L722.8,42.3z"/>
	<path class="st0" d="M735,20.1h-1.6v-5.3h1.6V20.1z M735,57.6h-1.6V27h1.6V57.6z"/>
	<path class="st0" d="M774,57.6h-1.6V50h-0.1c-1.3,2.6-3.3,4.7-5.7,6.2s-5.3,2.2-8.5,2.2c-4.8,0-8.7-1.6-11.7-4.8s-4.5-7-4.5-11.3
		s1.5-8.2,4.5-11.3c3-3.2,6.9-4.7,11.7-4.7c3.5,0,6.5,0.9,9.1,2.6s4.3,3.7,5.2,6h0.1V27h1.6L774,57.6L774,57.6z M772.6,42.3
		c0-4.2-1.4-7.6-4.2-10.4c-2.8-2.8-6.2-4.2-10.3-4.2s-7.5,1.4-10.3,4.1c-2.8,2.7-4.2,6.2-4.2,10.5c0,3.8,1.3,7.2,3.9,10.2
		c2.6,3,6.2,4.4,10.8,4.4c4.2,0,7.6-1.4,10.3-4.2C771.2,49.8,772.6,46.3,772.6,42.3L772.6,42.3z"/>
	<path class="st0" d="M800.8,57.6H799V14.8h1.7V57.6z"/>
	<path class="st0" d="M811.4,57.6h-1.7V14.8h1.7V57.6z"/>
	<path class="st0" d="M822.1,57.6h-1.7V14.8h1.7V57.6z"/>
	<path class="st0" d="M858.1,42.5h-15.4v-1.7h15.4V42.5z"/>
	<path class="st0" d="M901.5,46.4c0,3.4-1.2,6.3-3.8,8.6c-2.5,2.3-5.4,3.4-8.7,3.4c-1.3,0-2.7-0.2-4-0.7s-2.6-1.1-3.8-2
		c-1.2-0.9-2.2-2.1-3-3.6s-1.3-3.3-1.5-5.2h1.7c0.2,1.9,0.8,3.6,1.6,5c0.8,1.4,1.8,2.5,2.9,3.1c1.1,0.7,2.2,1.2,3.2,1.5s2,0.4,3,0.4
		c2.8,0,5.3-1,7.5-2.9s3.3-4.4,3.3-7.3c0-1.5-0.3-2.8-0.8-4s-1.1-2.1-1.8-2.8s-1.6-1.3-2.8-1.9s-2.1-1-2.8-1.2
		c-0.7-0.2-1.6-0.4-2.8-0.8s-2.1-0.5-2.7-0.7c-0.6-0.2-1.5-0.6-2.8-1.2s-2.2-1.2-2.9-1.9c-0.7-0.7-1.3-1.6-1.9-2.8
		c-0.6-1.2-0.9-2.6-0.9-4.1v-0.2c0-3.4,1.1-6,3.4-8c2.3-2,5-3,8.2-3c2.7,0,5.2,0.8,7.3,2.5c2.1,1.7,3.4,4.2,3.8,7.4h-1.7
		c-1-5.6-4.2-8.4-9.4-8.4c-2.8,0-5.1,0.9-7,2.6s-2.8,4-2.8,6.7c0,1.3,0.2,2.5,0.7,3.5s1,1.8,1.6,2.5c0.6,0.6,1.5,1.2,2.7,1.8
		c1.2,0.6,2.2,1,3,1.2s2,0.6,3.5,1c3.1,0.8,5.5,1.8,7.1,3.1C900.3,40.1,901.5,42.9,901.5,46.4L901.5,46.4z"/>
	<path class="st0" d="M940.7,42.3c0,4.4-1.5,8.2-4.5,11.3c-3,3.2-6.9,4.7-11.7,4.7c-3.5,0-6.5-0.9-9.1-2.6c-2.6-1.7-4.3-3.7-5.2-6
		h-0.1v20.1h-1.6V27h1.6v7.6h0.1c1.3-2.6,3.3-4.7,5.7-6.2s5.3-2.2,8.5-2.2c4.8,0,8.7,1.6,11.7,4.8S940.6,37.9,940.7,42.3L940.7,42.3
		z M939,42.3c0-3.8-1.3-7.2-3.9-10.2c-2.6-3-6.2-4.4-10.8-4.4c-4.2,0-7.6,1.4-10.3,4.2c-2.7,2.8-4,6.3-4,10.3s1.4,7.6,4.2,10.4
		s6.2,4.2,10.3,4.2s7.5-1.4,10.3-4.1S939.1,46.5,939,42.3L939,42.3z"/>
	<path class="st0" d="M960.1,27.8c-2.6,0.1-4.8,0.8-6.7,2.1c-1.7,1.5-2.8,3.1-3.3,4.8c-0.5,1.7-0.8,3.8-0.8,6.3v16.6h-1.6V27h1.6
		v5.6h0.1c0.5-1.1,1.2-2,2-2.8c0.8-0.8,1.5-1.4,2.2-1.8c0.7-0.4,1.5-0.7,2.5-1c0.9-0.3,1.7-0.4,2.2-0.5s1.1-0.1,1.9-0.1L960.1,27.8
		L960.1,27.8z"/>
	<path class="st0" d="M968,20.1h-1.6v-5.3h1.6V20.1z M968,57.6h-1.6V27h1.6V57.6z"/>
	<path class="st0" d="M1005.1,57.6h-1.6V41.4c0-4.9-1.2-8.5-3.8-10.8c-2.2-1.9-5-2.9-8.7-2.9c-3.9,0-6.9,1.1-9.1,3.3s-3.3,5.2-3.3,9
		v17.6H977V27h1.6v5.9h0.1c0.9-2.1,2.5-3.7,4.8-4.9c2.3-1.2,4.7-1.8,7.3-1.8c4,0,7.3,1,9.8,3.1c3,2.5,4.5,6.6,4.5,12.1L1005.1,57.6
		L1005.1,57.6z"/>
	<path class="st0" d="M1044.2,54.2c0,2.4-0.4,4.6-1.2,6.6c-0.8,2-1.8,3.6-2.9,4.7c-1.2,1.2-2.5,2.2-3.9,3c-1.5,0.8-2.8,1.4-4.1,1.7
		s-2.4,0.5-3.4,0.5c-3.2,0-6.2-0.8-9-2.5c-2.8-1.7-4.9-4-6.1-6.9h1.8c1.3,2.2,2.6,3.7,4,4.7c2.7,2.1,5.7,3.2,9,3.2
		c3.7,0,7-1.4,9.9-4.1c2.8-2.8,4.3-6.3,4.3-10.5V50h-0.2c-1.3,2.6-3.2,4.7-5.7,6.2c-2.5,1.5-5.3,2.2-8.5,2.2
		c-4.9,0-8.8-1.6-11.8-4.8s-4.5-7-4.5-11.3s1.5-8.2,4.5-11.3c3-3.2,6.9-4.7,11.8-4.7c3.5,0,6.5,0.9,9.1,2.6s4.3,3.7,5.2,6h0.1V27
		h1.6L1044.2,54.2L1044.2,54.2z M1042.7,42.3c0-4.2-1.4-7.6-4.2-10.4c-2.8-2.8-6.2-4.2-10.3-4.2s-7.6,1.4-10.4,4.1
		s-4.2,6.2-4.2,10.5c0,3.8,1.3,7.2,3.9,10.2s6.3,4.4,10.9,4.4c4.2,0,7.6-1.4,10.3-4.2C1041.4,49.8,1042.7,46.3,1042.7,42.3
		L1042.7,42.3z"/>
	<path class="st0" d="M1093.8,26.7v0.5c-0.1,2-0.6,3.9-1.7,5.6c-1,1.7-2.6,3.6-4.7,5.8L1070.2,56h23.5v1.6h-25.8V56l18.4-18.8
		c3.8-3.8,5.7-7.3,5.7-10.4v-0.3c0-3.2-1-5.8-3.1-7.9s-4.7-3.1-7.8-3.1s-5.5,1.1-7.6,3.2c-2.1,2.1-3.2,5.1-3.2,9.1h-1.7
		c0.1-4.5,1.4-8,4-10.3c2.6-2.3,5.5-3.5,8.8-3.5c3.5,0,6.4,1.2,8.8,3.6S1093.8,23.1,1093.8,26.7z"/>
	<path class="st0" d="M1126.5,27.6v17.1c0,2.1-0.4,4-1.1,5.6s-1.6,3-2.6,3.9s-2.2,1.8-3.5,2.4s-2.5,1.1-3.6,1.3s-2,0.3-2.9,0.3
		c-1.4,0-2.8-0.2-4.3-0.7s-3-1.2-4.4-2.1s-2.7-2.4-3.7-4.2c-1-1.9-1.4-4-1.4-6.5V28.2c0-2.4,0.4-4.4,1.1-6.2
		c0.8-1.8,1.7-3.2,2.7-4.1c1.1-1,2.3-1.7,3.6-2.3c1.3-0.6,2.5-1,3.5-1.2c1-0.2,1.8-0.3,2.7-0.3c3.9,0,7.2,1.3,9.9,3.8
		C1125.2,20.4,1126.5,23.6,1126.5,27.6L1126.5,27.6z M1124.8,44.8V27.6c0-3.2-1.1-6-3.2-8.4s-5.1-3.6-9.1-3.6
		c-3.3,0-6.1,1.1-8.4,3.3s-3.5,5.2-3.5,9.1v16.8c0,3.7,1.2,6.6,3.6,8.8c2.4,2.2,5.2,3.2,8.5,3.2c0.9,0,1.9-0.1,2.9-0.3
		s2.1-0.6,3.2-1.2s2.1-1.3,2.9-2.2s1.6-2,2.2-3.5C1124.5,48.1,1124.8,46.5,1124.8,44.8z"/>
	<path class="st0" d="M1158,26.7v0.5c-0.1,2-0.6,3.9-1.7,5.6c-1,1.7-2.6,3.6-4.7,5.8L1134.4,56h23.5v1.6h-25.8V56l18.4-18.8
		c3.8-3.8,5.7-7.3,5.7-10.4v-0.3c0-3.2-1-5.8-3.1-7.9s-4.7-3.1-7.8-3.1s-5.5,1.1-7.6,3.2c-2.1,2.1-3.2,5.1-3.2,9.1h-1.7
		c0.1-4.5,1.4-8,4-10.3c2.6-2.3,5.5-3.5,8.8-3.5c3.5,0,6.4,1.2,8.8,3.6S1158,23.1,1158,26.7z"/>
	<path class="st0" d="M1189.4,45.1c0,4-1.2,7.2-3.7,9.6c-2.4,2.5-5.6,3.7-9.5,3.7c-3.4,0-6.4-1.2-9.1-3.6c-2.6-2.4-3.9-5.6-4-9.6
		h1.7c0.1,3.7,1.3,6.6,3.6,8.6s4.9,3,7.8,3c3.4,0,6.1-1.1,8.2-3.3s3.1-4.9,3.1-8.1c0-2.8-1-5.5-3.1-7.9s-5.1-3.6-9.1-3.6h-2.3v-1.6
		h2.3c1.6,0,3-0.2,4.3-0.7c1.2-0.5,2.2-1,2.8-1.7c0.6-0.7,1.1-1.4,1.5-2.3c0.4-0.9,0.6-1.6,0.7-2.1c0.1-0.5,0.1-1.1,0.1-1.6
		c0-2.4-0.8-4.4-2.3-6c-1.5-1.6-3.5-2.3-5.8-2.3c-2.5,0-4.5,0.8-6,2.3s-2.4,3.5-2.5,5.8h-1.7c0.2-3.1,1.3-5.5,3.3-7.2
		s4.2-2.5,6.8-2.5c2.7,0,5.1,0.9,7.1,2.7c2,1.8,2.9,4.2,2.9,7.3c0,1.8-0.5,3.6-1.5,5.4s-2.5,3-4.5,3.6v0.1c1.7,0.6,3.2,1.4,4.4,2.5
		s2.2,2.1,2.8,3.3s1,2.3,1.3,3.3S1189.4,44.1,1189.4,45.1L1189.4,45.1z"/>
</g>
<g>
	<path d="M347.4,192.9h-35l-46.3-71.3h-0.3v71.3h-25.3l-49.9-71.3h-0.3v71.3h-30.5V73.3h30.2l45,65.8h0.3V73.3h30.2L347.4,192.9
		L347.4,192.9z"/>
	<path d="M463.9,192.9h-36.6l-10.5-17.3h-34.5v17.3h-30.5V73.3h30.2L463.9,192.9L463.9,192.9z M402.3,151.4l-19.7-33.1h-0.3v33.1
		H402.3z"/>
	<path d="M560.3,192.9h-34.9l-27.6-38.6h-0.3v38.6h-29.2V73.3h37.8c5.4,0,9.8,0.1,13.1,0.3c3.4,0.2,7.4,1,11.9,2.3
		c4.6,1.3,8.5,3.3,11.7,5.9c9.8,7.9,14.7,18.7,14.7,32.6c0,9.5-2.7,17.8-8,24.8c-5.3,7.1-12.6,11.3-21.7,12.9L560.3,192.9
		L560.3,192.9z M528.3,116.3c0-5.5-1.9-9.6-5.6-12.2s-8.4-4-14.1-4h-11.1v33.3h10.8c6.1,0,11-1.4,14.6-4.2
		C526.5,126.4,528.3,122.1,528.3,116.3L528.3,116.3z"/>
	<path d="M604.2,192.9h-30.5V73.3h30.5V192.9z M674.4,192.9h-37.3l-32.8-59.9l33.9-59.6h33.6l-35.5,59.6L674.4,192.9L674.4,192.9z"
		/>
	<path d="M923.8,192.9h-35l-46.3-71.3h-0.3v71.3h-25.3l-49.9-71.3h-0.3v71.3h-30.5V73.3h30.2l45,65.8h0.3V73.3h30.2L923.8,192.9
		L923.8,192.9z"/>
	<path d="M1040.3,192.9h-36.6l-10.5-17.3h-34.5v17.3h-30.5V73.3h30.2L1040.3,192.9L1040.3,192.9z M978.6,151.4L959,118.2h-0.3v33.1
		H978.6z"/>
</g>
</svg>
