<?xml version="1.0" encoding="UTF-8"?>
<svg id="Layer_1" data-name="Layer 1" xmlns="http://www.w3.org/2000/svg" viewBox="0 0 1200 250">
  <defs>
    <style>
      .cls-1 {
        letter-spacing: -.01em;
      }

      .cls-2 {
        letter-spacing: .02em;
      }

      .cls-3 {
        fill: #231f20;
      }

      .cls-3, .cls-4 {
        stroke-width: 0px;
      }

      .cls-5 {
        letter-spacing: .02em;
      }

      .cls-6 {
        letter-spacing: -.02em;
      }

      .cls-7 {
        font-family: ITCAvantGardeStd-XLt, 'ITC Avant Garde Gothic Std';
        font-size: 57.84px;
      }

      .cls-7, .cls-4 {
        fill: #fff;
      }
    </style>
  </defs>
  <rect class="cls-3" x="0" y="0" width="1200" height="250"/>
  <rect class="cls-4" x="0" y="74.5" width="1200" height="117.84"/>
  <g>
    <path class="cls-4" d="M444.15,219.24c0,2.08-.39,4.14-1.18,6.2-.79,2.06-1.89,3.72-3.32,4.99-1.69,1.5-3.5,2.49-5.42,2.97-1.92.48-4.27.72-7.03.72h-4.73v13.38h-10.44v-42.67h13.95c1.84,0,3.4.05,4.67.14,1.27.1,2.73.38,4.38.86,1.65.48,3.02,1.18,4.09,2.1,3.34,2.85,5.02,6.61,5.02,11.3ZM433.72,219.41c0-2-.65-3.33-1.96-4.01-1.31-.67-3.06-1.01-5.25-1.01h-4.04v10.15h4.44c2.11,0,3.78-.37,4.99-1.1,1.21-.73,1.82-2.08,1.82-4.04Z"/>
    <path class="cls-4" d="M493.04,226.16c0,6.27-2.19,11.52-6.57,15.77-4.38,4.25-9.73,6.37-16.03,6.37s-11.38-2.08-15.8-6.26c-4.42-4.17-6.63-9.29-6.63-15.37,0-3.23.56-6.26,1.67-9.11.58-1.54,1.5-3.13,2.77-4.79,4.46-5.84,10.47-8.76,18.05-8.76,6.26,0,11.59,2.13,15.97,6.4,4.38,4.27,6.57,9.51,6.57,15.74ZM482.15,226.22c0-3.42-1.09-6.38-3.26-8.88-2.17-2.5-4.95-3.75-8.33-3.75s-6.22,1.22-8.39,3.66c-2.17,2.44-3.26,5.37-3.26,8.79s1.1,6.49,3.29,8.97c2.19,2.48,5.02,3.72,8.48,3.72s6.09-1.24,8.24-3.72c2.15-2.48,3.23-5.41,3.23-8.79Z"/>
    <path class="cls-4" d="M531.79,247.49h-12.45l-9.86-13.78h-.12v13.78h-10.44v-42.67h13.49c1.92,0,3.49.04,4.7.11,1.21.08,2.63.36,4.27.84,1.63.48,3.03,1.18,4.18,2.1,3.5,2.81,5.25,6.69,5.25,11.65,0,3.38-.95,6.33-2.85,8.85-1.9,2.52-4.49,4.05-7.76,4.58l11.59,14.53ZM520.37,220.16c0-1.96-.66-3.41-1.99-4.35-1.33-.94-3.01-1.41-5.04-1.41h-3.98v11.88h3.86c2.19,0,3.93-.5,5.22-1.5,1.29-1,1.93-2.54,1.93-4.61Z"/>
    <path class="cls-4" d="M559.52,214.4h-8.36v33.1h-10.9v-33.1h-8.42v-9.57h27.68v9.57Z"/>
    <path class="cls-4" d="M591.47,247.49h-10.9v-6.17h-12.34l-3.75,6.17h-13.09l29.29-42.67h10.78v42.67ZM580.57,232.67v-11.82h-.11l-7.03,11.82h7.15Z"/>
    <path class="cls-4" d="M623,247.49h-23.52v-42.67h10.9v33.1h12.63v9.57Z"/>
    <path class="cls-4" d="M677.2,219.24c0,2.08-.39,4.14-1.18,6.2-.79,2.06-1.89,3.72-3.32,4.99-1.69,1.5-3.5,2.49-5.42,2.97-1.92.48-4.27.72-7.03.72h-4.73v13.38h-10.44v-42.67h13.95c1.84,0,3.4.05,4.67.14,1.27.1,2.73.38,4.38.86,1.65.48,3.02,1.18,4.09,2.1,3.34,2.85,5.02,6.61,5.02,11.3ZM666.77,219.41c0-2-.65-3.33-1.96-4.01-1.31-.67-3.06-1.01-5.25-1.01h-4.04v10.15h4.44c2.11,0,3.78-.37,4.99-1.1,1.21-.73,1.82-2.08,1.82-4.04Z"/>
    <path class="cls-4" d="M707.3,247.49h-10.9v-6.17h-12.34l-3.75,6.17h-13.09l29.29-42.67h10.78v42.67ZM696.4,232.67v-11.82h-.11l-7.03,11.82h7.15Z"/>
    <path class="cls-4" d="M758.62,225.47c0,6.54-2.16,11.98-6.49,16.35-4.32,4.36-9.75,6.54-16.29,6.54s-11.66-2.15-16.06-6.46c-4.4-4.3-6.6-9.61-6.6-15.91s2.22-11.54,6.66-15.71c4.44-4.17,9.83-6.26,16.17-6.26,4.73,0,9.15,1.4,13.26,4.21,4.11,2.81,6.8,6.44,8.07,10.9h-12.22c-2.08-3.69-5.21-5.54-9.4-5.54-3.42,0-6.22,1.2-8.39,3.6-2.17,2.4-3.26,5.33-3.26,8.79s1.07,6.65,3.2,9.11c2.13,2.46,4.97,3.69,8.5,3.69,2.46,0,4.61-.58,6.46-1.73,1.85-1.15,3.09-2.86,3.75-5.13h-12.74v-8.71h25.31c.04.5.06,1.25.06,2.25Z"/>
    <path class="cls-4" d="M787.96,247.49h-23.7v-42.67h23.7v9.57h-13.26v6.63h12.86v9.57h-12.86v7.32h13.26v9.57Z"/>
  </g>
  <text class="cls-7" transform="translate(6.96 57.61)"><tspan x="0" y="0">DES 157B - Inte</tspan><tspan class="cls-6" x="393.8" y="0">r</tspan><tspan x="410.4" y="0">act</tspan><tspan class="cls-5" x="502.29" y="0">i</tspan><tspan class="cls-1" x="514.09" y="0">v</tspan><tspan x="541.22" y="0">e Media III - Sp</tspan><tspan class="cls-2" x="936.23" y="0">r</tspan><tspan x="954.91" y="0">ing 2023</tspan></text>
  <g>
    <path class="cls-3" d="M347.42,192.9h-35.02l-46.32-71.26h-.32v71.26h-25.34l-49.87-71.26h-.32v71.26h-30.5v-119.58h30.18l45.03,65.77h.32v-65.77h30.18l81.99,119.58Z"/>
    <path class="cls-3" d="M463.94,192.9h-36.64l-10.49-17.29h-34.54v17.29h-30.5v-119.58h30.18l81.99,119.58ZM402.29,151.37l-19.69-33.13h-.32v33.13h20.01Z"/>
    <path class="cls-3" d="M560.3,192.9h-34.86l-27.6-38.62h-.32v38.62h-29.21v-119.58h37.77c5.38,0,9.76.11,13.15.32,3.39.22,7.37,1,11.94,2.34,4.57,1.35,8.48,3.31,11.7,5.9,9.79,7.87,14.69,18.74,14.69,32.64,0,9.48-2.66,17.75-7.99,24.8-5.33,7.06-12.56,11.34-21.71,12.85l32.44,40.72ZM528.34,116.31c0-5.49-1.86-9.56-5.57-12.2-3.71-2.64-8.42-3.96-14.12-3.96h-11.14v33.29h10.81c6.13,0,11-1.4,14.61-4.2,3.6-2.8,5.41-7.11,5.41-12.93Z"/>
    <path class="cls-3" d="M604.2,192.9h-30.51v-119.58h30.51v119.58ZM674.41,192.9h-37.28l-32.76-59.95,33.89-59.63h33.57l-35.51,59.63,38.09,59.95Z"/>
    <path class="cls-3" d="M923.76,192.9h-35.02l-46.32-71.26h-.32v71.26h-25.34l-49.87-71.26h-.32v71.26h-30.51v-119.58h30.18l45.03,65.77h.32v-65.77h30.18l81.99,119.58Z"/>
    <path class="cls-3" d="M1040.29,192.9h-36.64l-10.49-17.29h-34.54v17.29h-30.51v-119.58h30.18l81.99,119.58ZM978.64,151.37l-19.69-33.13h-.32v33.13h20.01Z"/>
  </g>
</svg>