<?xml version="1.0" encoding="utf-8"?>
<!-- Generator: Adobe Illustrator 28.4.1, SVG Export Plug-In . SVG Version: 6.00 Build 0)  -->
<svg version="1.1" id="Layer_1" xmlns="http://www.w3.org/2000/svg" xmlns:xlink="http://www.w3.org/1999/xlink" x="0px" y="0px"
	 viewBox="0 0 1200 250" style="enable-background:new 0 0 1200 250;" xml:space="preserve">
<style type="text/css">
	.st0{fill:#FFFFFF;}
	.st1{fill:#231F20;}
	.st2{font-family:'ITCAvantGardeStd-XLt';}
	.st3{font-size:57.84px;}
	.st4{letter-spacing:1;}
</style>
<rect class="st0" width="1200" height="250"/>
<rect y="74.5" width="1200" height="117.8"/>
<g>
	<path class="st1" d="M444.1,219.2c0,2.1-0.4,4.1-1.2,6.2c-0.8,2.1-1.9,3.7-3.3,5c-1.7,1.5-3.5,2.5-5.4,3s-4.3,0.7-7,0.7h-4.7v13.4
		H412v-42.7h14c1.8,0,3.4,0.1,4.7,0.1c1.3,0.1,2.7,0.4,4.4,0.9s3,1.2,4.1,2.1C442.5,210.8,444.1,214.5,444.1,219.2L444.1,219.2z
		 M433.7,219.4c0-2-0.6-3.3-2-4c-1.3-0.7-3.1-1-5.2-1h-4v10.1h4.4c2.1,0,3.8-0.4,5-1.1C433.1,222.7,433.7,221.4,433.7,219.4
		L433.7,219.4z"/>
	<path class="st1" d="M493,226.2c0,6.3-2.2,11.5-6.6,15.8s-9.7,6.4-16,6.4s-11.4-2.1-15.8-6.3c-4.4-4.2-6.6-9.3-6.6-15.4
		c0-3.2,0.6-6.3,1.7-9.1c0.6-1.5,1.5-3.1,2.8-4.8c4.5-5.8,10.5-8.8,18-8.8c6.3,0,11.6,2.1,16,6.4S493,219.9,493,226.2L493,226.2z
		 M482.1,226.2c0-3.4-1.1-6.4-3.3-8.9s-5-3.8-8.3-3.8s-6.2,1.2-8.4,3.7s-3.3,5.4-3.3,8.8s1.1,6.5,3.3,9s5,3.7,8.5,3.7
		s6.1-1.2,8.2-3.7S482.1,229.6,482.1,226.2z"/>
	<path class="st1" d="M531.8,247.5h-12.5l-9.9-13.8h-0.1v13.8h-10.4v-42.7h13.5c1.9,0,3.5,0,4.7,0.1c1.2,0.1,2.6,0.4,4.3,0.8
		c1.6,0.5,3,1.2,4.2,2.1c3.5,2.8,5.2,6.7,5.2,11.6c0,3.4-1,6.3-2.8,8.9c-1.9,2.5-4.5,4.1-7.8,4.6L531.8,247.5L531.8,247.5z
		 M520.4,220.2c0-2-0.7-3.4-2-4.4s-3-1.4-5-1.4h-4v11.9h3.9c2.2,0,3.9-0.5,5.2-1.5S520.4,222.2,520.4,220.2L520.4,220.2z"/>
	<path class="st1" d="M559.5,214.4h-8.4v33.1h-10.9v-33.1h-8.4v-9.6h27.7V214.4z"/>
	<path class="st1" d="M591.5,247.5h-10.9v-6.2h-12.3l-3.8,6.2h-13.1l29.3-42.7h10.8L591.5,247.5L591.5,247.5z M580.6,232.7v-11.8
		h-0.1l-7,11.8L580.6,232.7L580.6,232.7z"/>
	<path class="st1" d="M623,247.5h-23.5v-42.7h10.9v33.1H623L623,247.5L623,247.5z"/>
	<path class="st1" d="M677.2,219.2c0,2.1-0.4,4.1-1.2,6.2s-1.9,3.7-3.3,5c-1.7,1.5-3.5,2.5-5.4,3s-4.3,0.7-7,0.7h-4.7v13.4h-10.4
		v-42.7h14c1.8,0,3.4,0.1,4.7,0.1c1.3,0.1,2.7,0.4,4.4,0.9s3,1.2,4.1,2.1C675.5,210.8,677.2,214.5,677.2,219.2L677.2,219.2z
		 M666.8,219.4c0-2-0.7-3.3-2-4c-1.3-0.7-3.1-1-5.2-1h-4v10.1h4.4c2.1,0,3.8-0.4,5-1.1C666.2,222.7,666.8,221.4,666.8,219.4
		L666.8,219.4z"/>
	<path class="st1" d="M707.3,247.5h-10.9v-6.2h-12.3l-3.8,6.2h-13.1l29.3-42.7h10.8L707.3,247.5L707.3,247.5z M696.4,232.7v-11.8
		h-0.1l-7,11.8L696.4,232.7L696.4,232.7z"/>
	<path class="st1" d="M758.6,225.5c0,6.5-2.2,12-6.5,16.4c-4.3,4.4-9.8,6.5-16.3,6.5s-11.7-2.1-16.1-6.5c-4.4-4.3-6.6-9.6-6.6-15.9
		s2.2-11.5,6.7-15.7c4.4-4.2,9.8-6.3,16.2-6.3c4.7,0,9.2,1.4,13.3,4.2c4.1,2.8,6.8,6.4,8.1,10.9h-12.2c-2.1-3.7-5.2-5.5-9.4-5.5
		c-3.4,0-6.2,1.2-8.4,3.6c-2.2,2.4-3.3,5.3-3.3,8.8s1.1,6.6,3.2,9.1s5,3.7,8.5,3.7c2.5,0,4.6-0.6,6.5-1.7c1.8-1.1,3.1-2.9,3.8-5.1
		h-12.7v-8.7h25.3C758.6,223.7,758.6,224.5,758.6,225.5L758.6,225.5z"/>
	<path class="st1" d="M788,247.5h-23.7v-42.7H788v9.6h-13.3v6.6h12.9v9.6h-12.9v7.3H788V247.5L788,247.5z"/>
</g>
<text transform="matrix(1 0 0 1 6.96 57.61)" class="st1 st2 st3">DES 157B - Inte</text>
<text transform="matrix(1 0 0 1 400.76 57.61)" class="st1 st2 st3">r</text>
<text transform="matrix(1 0 0 1 417.36 57.61)" class="st1 st2 st3">act</text>
<text transform="matrix(1 0 0 1 509.25 57.61)" class="st1 st2 st3 st4">i</text>
<text transform="matrix(1 0 0 1 521.05 57.61)" class="st1 st2 st3">v</text>
<text transform="matrix(1 0 0 1 548.18 57.61)" class="st1 st2 st3">e Media III - Sp</text>
<text transform="matrix(1 0 0 1 943.19 57.61)" class="st1 st2 st3 st4">r</text>
<text transform="matrix(1 0 0 1 961.87 57.61)" class="st1 st2 st3">ing 2023</text>
<g>
	<path class="st0" d="M347.4,192.9h-35l-46.3-71.3h-0.3v71.3h-25.3l-49.9-71.3h-0.3v71.3h-30.5V73.3h30.2l45,65.8h0.3V73.3h30.2
		L347.4,192.9L347.4,192.9z"/>
	<path class="st0" d="M463.9,192.9h-36.6l-10.5-17.3h-34.5v17.3h-30.5V73.3h30.2L463.9,192.9L463.9,192.9z M402.3,151.4l-19.7-33.1
		h-0.3v33.1H402.3z"/>
	<path class="st0" d="M560.3,192.9h-34.9l-27.6-38.6h-0.3v38.6h-29.2V73.3h37.8c5.4,0,9.8,0.1,13.1,0.3c3.4,0.2,7.4,1,11.9,2.3
		c4.6,1.3,8.5,3.3,11.7,5.9c9.8,7.9,14.7,18.7,14.7,32.6c0,9.5-2.7,17.8-8,24.8c-5.3,7.1-12.6,11.3-21.7,12.9L560.3,192.9
		L560.3,192.9z M528.3,116.3c0-5.5-1.9-9.6-5.6-12.2s-8.4-4-14.1-4h-11.1v33.3h10.8c6.1,0,11-1.4,14.6-4.2
		C526.5,126.4,528.3,122.1,528.3,116.3L528.3,116.3z"/>
	<path class="st0" d="M604.2,192.9h-30.5V73.3h30.5V192.9z M674.4,192.9h-37.3l-32.8-59.9l33.9-59.6h33.6l-35.5,59.6L674.4,192.9
		L674.4,192.9z"/>
	<path class="st0" d="M923.8,192.9h-35l-46.3-71.3h-0.3v71.3h-25.3l-49.9-71.3h-0.3v71.3h-30.5V73.3h30.2l45,65.8h0.3V73.3h30.2
		L923.8,192.9L923.8,192.9z"/>
	<path class="st0" d="M1040.3,192.9h-36.6l-10.5-17.3h-34.5v17.3h-30.5V73.3h30.2L1040.3,192.9L1040.3,192.9z M978.6,151.4
		L959,118.2h-0.3v33.1H978.6z"/>
</g>
</svg>
