<?xml version="1.0" encoding="UTF-8"?>
<svg id="Layer_1" data-name="Layer 1" xmlns="http://www.w3.org/2000/svg" xmlns:xlink="http://www.w3.org/1999/xlink" viewBox="0 0 1200 750">
  <defs>
    <style>
      .cls-1 {
        clip-path: url(#clippath);
      }

      .cls-2 {
        fill: none;
      }

      .cls-2, .cls-3, .cls-4, .cls-5, .cls-6 {
        stroke-width: 0px;
      }

      .cls-7, .cls-8, .cls-9 {
        stroke: #231f20;
        stroke-miterlimit: 10;
      }

      .cls-7, .cls-3 {
        fill: #231f20;
      }

      .cls-8 {
        fill: url(#linear-gradient);
      }

      .cls-9, .cls-6 {
        fill: #fff;
      }

      .cls-4 {
        fill: #e6e7e8;
      }

      .cls-5 {
        fill: #414042;
      }
    </style>
    <clipPath id="clippath">
      <rect class="cls-2" width="1200" height="750"/>
    </clipPath>
    <linearGradient id="linear-gradient" x1="600" y1="338.03" x2="600" y2="1027.99" gradientUnits="userSpaceOnUse">
      <stop offset=".27" stop-color="#e5be91"/>
      <stop offset="1" stop-color="#9a7b60"/>
    </linearGradient>
  </defs>
  <g class="cls-1">
    <g>
      <g>
        <rect class="cls-5" x="419.54" y="140.45" width="369.69" height="27.11"/>
        <rect class="cls-4" x="566.94" y="154.01" width="74.9" height="10.37" rx="5.19" ry="5.19"/>
      </g>
      <g>
        <rect class="cls-5" x="1033.66" y="140.45" width="369.69" height="27.11"/>
        <rect class="cls-4" x="1181.06" y="154.01" width="74.9" height="10.37" rx="5.19" ry="5.19"/>
      </g>
      <g>
        <rect class="cls-5" x="-184.85" y="140.45" width="369.69" height="27.11"/>
        <rect class="cls-4" x="-37.45" y="154.01" width="74.9" height="10.37" rx="5.19" ry="5.19"/>
      </g>
      <path class="cls-8" d="M1116.98,141.66h83.02V0H0v141.66h83.02c55.81,0,101.05,45.24,101.05,101.05v217.14c0,55.81-45.24,101.05-101.05,101.05H0v189.1h1200v-189.1h-83.02c-55.81,0-101.05-45.24-101.05-101.05v-217.14c0-55.81,45.24-101.05,101.05-101.05ZM809.62,459.85c0,55.81-45.24,101.05-101.05,101.05h-217.14c-55.81,0-101.05-45.24-101.05-101.05v-217.14c0-55.81,45.24-101.05,101.05-101.05h217.14c55.81,0,101.05,45.24,101.05,101.05v217.14Z"/>
      <rect class="cls-9" x="557.19" y="79.42" width="162.42" height="38.12"/>
      <rect class="cls-7" x="480.39" y="79.42" width="76.8" height="38.12"/>
      <path class="cls-6" d="M529.63,86.93l-6.63,7.9.06.06c1.05-.46,2.04-.71,3.25-.71,4.58,0,7.5,3.93,7.5,8.21,0,5.73-4.71,8.83-10.04,8.83-2.26,0-4.86-.59-6.66-2.01-1.86-1.55-3.13-4-3.13-6.41,0-3.38,1.73-6.66,3.75-9.29l5.02-6.57h6.88ZM527.5,102.57c0-2.11-1.61-3.81-3.75-3.81s-3.84,1.7-3.84,3.81,1.73,3.87,3.84,3.87,3.75-1.73,3.75-3.87Z"/>
      <g>
        <path class="cls-6" d="M495.11,110.29h-1.37l-2.66-3.83h-.47v3.83h-1.13v-9.04h1.37c.8,0,1.67.01,2.39.42.76.44,1.19,1.29,1.19,2.16,0,1.3-.86,2.37-2.17,2.53l2.85,3.93ZM490.61,105.53h.36c1.15,0,2.4-.22,2.4-1.66s-1.34-1.62-2.46-1.62h-.3v3.27Z"/>
        <path class="cls-6" d="M501.37,107.49c0,1.69-1.32,2.99-3,2.99s-3-1.3-3-2.99,1.32-2.99,3-2.99,3,1.3,3,2.99ZM496.45,107.49c0,1.06.85,1.96,1.92,1.96s1.92-.9,1.92-1.96-.85-1.96-1.92-1.96-1.92.89-1.92,1.96Z"/>
        <path class="cls-6" d="M504.28,108.25l1.66-3.89,1.64,3.89,1.63-3.57h1.22l-2.85,5.8-1.64-3.75-1.66,3.75-2.85-5.8h1.22l1.63,3.57Z"/>
      </g>
      <g>
        <path class="cls-3" d="M623.19,92.1c-1.43-1.74-3.59-2.79-5.78-2.79-4.91,0-7.73,4.53-7.73,9.05s2.92,8.84,7.7,8.84c2.19,0,4.39-1.15,5.82-2.79v6.09c-1.92.91-3.83,1.57-5.95,1.57-7.38,0-12.85-6.37-12.85-13.61s5.26-14.03,12.95-14.03c2.05,0,4.07.56,5.85,1.53v6.13Z"/>
        <g>
          <path class="cls-3" d="M581.3,108.81l1.65-4.3,1.65,4.3,1.63-4.18h.79l-2.42,6.06-1.65-4.28-1.65,4.28-2.42-6.06h.79l1.63,4.18Z"/>
          <path class="cls-3" d="M588.37,105.19c0,.26-.22.47-.48.47s-.48-.21-.48-.47.22-.49.48-.49.48.22.48.49ZM588.24,110.46h-.7v-3.62h.7v3.62Z"/>
          <path class="cls-3" d="M590.04,107.33h.02c.22-.39.65-.6,1.09-.6,1.02,0,1.28.69,1.28,1.57v2.16h-.7v-2.07c0-.62-.08-1.04-.8-1.04-.9,0-.9.79-.9,1.45v1.66h-.7v-3.62h.7v.49Z"/>
          <path class="cls-3" d="M596.09,109.9h-.02c-.28.41-.72.69-1.23.69-1.11,0-1.73-.92-1.73-1.96s.66-1.9,1.7-1.9c.54,0,.97.28,1.26.71h.02v-3.7h.7v6.71h-.7v-.57ZM596.13,108.65c0-.7-.43-1.3-1.18-1.3s-1.15.63-1.15,1.3.41,1.32,1.15,1.32,1.18-.6,1.18-1.32Z"/>
          <path class="cls-3" d="M601.23,108.66c0,1.09-.85,1.93-1.93,1.93s-1.93-.84-1.93-1.93.85-1.93,1.93-1.93,1.93.84,1.93,1.93ZM598.06,108.66c0,.68.55,1.26,1.24,1.26s1.24-.58,1.24-1.26-.55-1.26-1.24-1.26-1.24.57-1.24,1.26Z"/>
          <path class="cls-3" d="M603.1,109.15l1.07-2.51,1.06,2.51,1.05-2.31h.79l-1.84,3.75-1.06-2.42-1.07,2.42-1.84-3.75h.79l1.05,2.31Z"/>
        </g>
      </g>
      <g>
        <path class="cls-3" d="M659.23,85.25h7.31c7.59,0,12.67,5.68,12.67,13.16s-5.22,13.09-12.71,13.09h-7.28v-26.25ZM664.35,107.05h.84c6.3,0,8.74-3.48,8.74-8.67,0-5.71-2.93-8.67-8.74-8.67h-.84v17.34Z"/>
        <g>
          <path class="cls-3" d="M644.42,109.47l-.67,1.46h-.78l2.79-6.08,2.79,6.08h-.78l-.67-1.46h-2.68ZM645.76,106.44l-1.04,2.36h2.07l-1.04-2.36Z"/>
          <path class="cls-3" d="M649.93,105.65c0,.26-.22.47-.48.47s-.48-.21-.48-.47.22-.49.48-.49.48.22.48.49ZM649.8,110.93h-.7v-3.62h.7v3.62Z"/>
          <path class="cls-3" d="M652.37,108.14c-.08-.18-.26-.32-.46-.32s-.38.15-.38.36c0,.32.42.46.84.65.43.19.84.46.84,1.03,0,.69-.57,1.2-1.25,1.2-.53,0-1.06-.3-1.25-.81l.6-.27c.15.27.33.46.66.46.29,0,.55-.2.55-.51,0-.19-.09-.29-.26-.39l-.68-.36c-.4-.22-.7-.42-.7-.91,0-.59.48-1.05,1.07-1.05.44,0,.8.24.99.63l-.57.3Z"/>
          <path class="cls-3" d="M654.61,110.93h-.7v-6.71h.7v6.71Z"/>
          <path class="cls-3" d="M656.02,109.23c0,.62.43,1.2,1.09,1.2.53,0,.82-.27,1.08-.7l.59.33c-.34.63-.97.99-1.68.99-1.11,0-1.78-.84-1.78-1.9s.6-1.95,1.76-1.95,1.69.85,1.69,1.93v.11h-2.76ZM658.08,108.71c-.08-.54-.44-.91-1-.91s-.94.39-1.03.91h2.03Z"/>
        </g>
      </g>
      <rect class="cls-9" x="-80.26" y="79.42" width="162.42" height="38.12"/>
      <g>
        <path class="cls-3" d="M21.78,85.25h7.31c7.59,0,12.67,5.68,12.67,13.16s-5.22,13.09-12.71,13.09h-7.28v-26.25ZM26.9,107.05h.84c6.3,0,8.74-3.48,8.74-8.67,0-5.71-2.93-8.67-8.74-8.67h-.84v17.34Z"/>
        <g>
          <path class="cls-3" d="M6.97,109.47l-.67,1.46h-.78l2.79-6.08,2.79,6.08h-.78l-.67-1.46h-2.68ZM8.31,106.44l-1.04,2.36h2.07l-1.04-2.36Z"/>
          <path class="cls-3" d="M12.48,105.65c0,.26-.22.47-.48.47s-.48-.21-.48-.47.22-.49.48-.49.48.22.48.49ZM12.35,110.93h-.7v-3.62h.7v3.62Z"/>
          <path class="cls-3" d="M14.92,108.14c-.08-.18-.26-.32-.46-.32s-.38.15-.38.36c0,.32.42.46.84.65.43.19.84.46.84,1.03,0,.69-.57,1.2-1.25,1.2-.53,0-1.06-.3-1.25-.81l.6-.27c.15.27.33.46.66.46.29,0,.55-.2.55-.51,0-.19-.09-.29-.26-.39l-.68-.36c-.4-.22-.7-.42-.7-.91,0-.59.48-1.05,1.07-1.05.44,0,.8.24.99.63l-.56.3Z"/>
          <path class="cls-3" d="M17.16,110.93h-.7v-6.71h.7v6.71Z"/>
          <path class="cls-3" d="M18.56,109.23c0,.62.43,1.2,1.09,1.2.53,0,.82-.27,1.08-.7l.59.33c-.34.63-.97.99-1.68.99-1.11,0-1.78-.84-1.78-1.9s.6-1.95,1.76-1.95,1.69.85,1.69,1.93v.11h-2.76ZM20.63,108.71c-.08-.54-.44-.91-1-.91s-.94.39-1.03.91h2.03Z"/>
        </g>
      </g>
      <rect class="cls-9" x="1194.64" y="82.18" width="162.42" height="38.12"/>
      <rect class="cls-7" x="1117.84" y="82.18" width="76.8" height="38.12"/>
      <path class="cls-6" d="M1160.08,94.84l-.4,2.66,1.92-.15c4.77-.37,8.27,3.53,8.27,8.36,0,2.45-1.08,4.74-3,6.32-1.86,1.49-4.49,1.95-6.81,1.95-2.66,0-5.36-.65-7.62-2.11l.9-5.73c1.8,1.61,4.09,2.69,6.5,2.69,1.92,0,3.72-1.39,3.72-3.44,0-2.82-2.7-4-5.11-4-1.55,0-3.07.31-4.46.96l2.04-12.67h12.14v5.14h-8.08Z"/>
      <g>
        <path class="cls-6" d="M1132.56,113.05h-1.37l-2.66-3.83h-.47v3.83h-1.13v-9.04h1.37c.8,0,1.67.01,2.39.42.75.44,1.19,1.29,1.19,2.16,0,1.3-.86,2.37-2.17,2.53l2.85,3.93ZM1128.06,108.29h.36c1.15,0,2.4-.22,2.4-1.66s-1.34-1.62-2.46-1.62h-.3v3.27Z"/>
        <path class="cls-6" d="M1138.82,110.26c0,1.69-1.32,2.99-3,2.99s-3-1.3-3-2.99,1.32-2.99,3-2.99,3,1.3,3,2.99ZM1133.9,110.26c0,1.06.85,1.96,1.92,1.96s1.92-.9,1.92-1.96-.85-1.96-1.92-1.96-1.92.89-1.92,1.96Z"/>
        <path class="cls-6" d="M1141.73,111.01l1.66-3.89,1.64,3.89,1.63-3.57h1.22l-2.85,5.8-1.64-3.75-1.66,3.75-2.85-5.8h1.22l1.63,3.57Z"/>
      </g>
      <rect class="cls-6" x="279.32" y="154.01" width="10.16" height="55.05"/>
      <rect class="cls-6" x="906.37" y="154.01" width="10.16" height="55.05"/>
    </g>
  </g>
</svg>