<?xml version="1.0" encoding="UTF-8"?>
<svg id="Layer_1" data-name="Layer 1" xmlns="http://www.w3.org/2000/svg" xmlns:xlink="http://www.w3.org/1999/xlink" viewBox="0 0 1588.2 751">
  <defs>
    <style>
      .cls-1 {
        clip-path: url(#clippath);
      }

      .cls-2 {
        fill: none;
      }

      .cls-2, .cls-3, .cls-4, .cls-5, .cls-6 {
        stroke-width: 0px;
      }

      .cls-7, .cls-8, .cls-9 {
        stroke: #231f20;
        stroke-miterlimit: 10;
      }

      .cls-7, .cls-3 {
        fill: #231f20;
      }

      .cls-8 {
        fill: url(#linear-gradient);
      }

      .cls-9, .cls-6 {
        fill: #fff;
      }

      .cls-4 {
        fill: #e6e7e8;
      }

      .cls-5 {
        fill: #414042;
      }
    </style>
    <clipPath id="clippath">
      <rect class="cls-2" x="184.85" y=".5" width="1200" height="750"/>
    </clipPath>
    <linearGradient id="linear-gradient" x1="784.85" y1="338.53" x2="784.85" y2="1028.49" gradientUnits="userSpaceOnUse">
      <stop offset=".27" stop-color="#e5be91"/>
      <stop offset="1" stop-color="#9a7b60"/>
    </linearGradient>
  </defs>
  <g class="cls-1">
    <g>
      <g>
        <rect class="cls-5" x="604.39" y="140.95" width="369.69" height="27.11"/>
        <rect class="cls-4" x="751.79" y="154.51" width="74.9" height="10.37" rx="5.19" ry="5.19"/>
      </g>
      <g>
        <rect class="cls-5" x="1218.51" y="140.95" width="369.69" height="27.11"/>
        <rect class="cls-4" x="1365.9" y="154.51" width="74.9" height="10.37" rx="5.19" ry="5.19"/>
      </g>
      <g>
        <rect class="cls-5" y="140.95" width="369.69" height="27.11"/>
        <rect class="cls-4" x="147.4" y="154.51" width="74.9" height="10.37" rx="5.19" ry="5.19"/>
      </g>
      <path class="cls-8" d="M1301.82,142.16h83.02V.5H184.85v141.66h83.02c55.81,0,101.05,45.24,101.05,101.05v217.14c0,55.81-45.24,101.05-101.05,101.05h-83.02v189.1h1200v-189.1h-83.02c-55.81,0-101.05-45.24-101.05-101.05v-217.14c0-55.81,45.24-101.05,101.05-101.05ZM994.47,460.35c0,55.81-45.24,101.05-101.05,101.05h-217.14c-55.81,0-101.05-45.24-101.05-101.05v-217.14c0-55.81,45.24-101.05,101.05-101.05h217.14c55.81,0,101.05,45.24,101.05,101.05v217.14Z"/>
      <rect class="cls-9" x="742.04" y="79.92" width="162.42" height="38.12"/>
      <rect class="cls-7" x="665.24" y="79.92" width="76.8" height="38.12"/>
      <path class="cls-6" d="M714.48,87.43l-6.63,7.9.06.06c1.05-.46,2.04-.71,3.25-.71,4.58,0,7.5,3.93,7.5,8.21,0,5.73-4.71,8.83-10.04,8.83-2.26,0-4.86-.59-6.66-2.01-1.86-1.55-3.13-4-3.13-6.41,0-3.38,1.73-6.66,3.75-9.29l5.02-6.57h6.88ZM712.34,103.07c0-2.11-1.61-3.81-3.75-3.81s-3.84,1.7-3.84,3.81,1.73,3.87,3.84,3.87,3.75-1.73,3.75-3.87Z"/>
      <g>
        <path class="cls-6" d="M679.95,110.79h-1.37l-2.66-3.83h-.47v3.83h-1.13v-9.04h1.37c.8,0,1.67.01,2.39.42.76.44,1.19,1.29,1.19,2.16,0,1.3-.86,2.37-2.17,2.53l2.85,3.93ZM675.45,106.03h.36c1.15,0,2.4-.22,2.4-1.66s-1.34-1.62-2.46-1.62h-.3v3.27Z"/>
        <path class="cls-6" d="M686.22,107.99c0,1.69-1.32,2.99-3,2.99s-3-1.3-3-2.99,1.32-2.99,3-2.99,3,1.3,3,2.99ZM681.3,107.99c0,1.06.85,1.96,1.92,1.96s1.92-.9,1.92-1.96-.85-1.96-1.92-1.96-1.92.89-1.92,1.96Z"/>
        <path class="cls-6" d="M689.12,108.75l1.66-3.89,1.64,3.89,1.63-3.57h1.22l-2.85,5.8-1.64-3.75-1.66,3.75-2.85-5.8h1.22l1.63,3.57Z"/>
      </g>
      <g>
        <path class="cls-3" d="M808.04,92.6c-1.43-1.74-3.59-2.79-5.78-2.79-4.91,0-7.73,4.53-7.73,9.05s2.92,8.84,7.7,8.84c2.19,0,4.39-1.15,5.82-2.79v6.09c-1.92.91-3.83,1.57-5.95,1.57-7.38,0-12.85-6.37-12.85-13.61s5.26-14.03,12.95-14.03c2.05,0,4.07.56,5.85,1.53v6.13Z"/>
        <g>
          <path class="cls-3" d="M766.14,109.31l1.65-4.3,1.65,4.3,1.63-4.18h.79l-2.42,6.06-1.65-4.28-1.65,4.28-2.42-6.06h.79l1.63,4.18Z"/>
          <path class="cls-3" d="M773.21,105.69c0,.26-.22.47-.48.47s-.48-.21-.48-.47.22-.49.48-.49.48.22.48.49ZM773.08,110.96h-.7v-3.62h.7v3.62Z"/>
          <path class="cls-3" d="M774.89,107.83h.02c.22-.39.65-.6,1.09-.6,1.02,0,1.28.69,1.28,1.57v2.16h-.7v-2.07c0-.62-.08-1.04-.8-1.04-.9,0-.9.79-.9,1.45v1.66h-.7v-3.62h.7v.49Z"/>
          <path class="cls-3" d="M780.94,110.4h-.02c-.28.41-.72.69-1.23.69-1.11,0-1.73-.92-1.73-1.96s.66-1.9,1.7-1.9c.54,0,.97.28,1.26.71h.02v-3.7h.7v6.71h-.7v-.57ZM780.98,109.15c0-.7-.43-1.3-1.18-1.3s-1.15.63-1.15,1.3.41,1.32,1.15,1.32,1.18-.6,1.18-1.32Z"/>
          <path class="cls-3" d="M786.08,109.16c0,1.09-.85,1.93-1.93,1.93s-1.93-.84-1.93-1.93.85-1.93,1.93-1.93,1.93.84,1.93,1.93ZM782.91,109.16c0,.68.55,1.26,1.24,1.26s1.24-.58,1.24-1.26-.55-1.26-1.24-1.26-1.24.57-1.24,1.26Z"/>
          <path class="cls-3" d="M787.95,109.65l1.07-2.51,1.06,2.51,1.05-2.31h.79l-1.84,3.75-1.06-2.42-1.07,2.42-1.84-3.75h.79l1.05,2.31Z"/>
        </g>
      </g>
      <g>
        <path class="cls-3" d="M844.08,85.75h7.31c7.59,0,12.67,5.68,12.67,13.16s-5.22,13.09-12.71,13.09h-7.28v-26.25ZM849.2,107.55h.84c6.3,0,8.74-3.48,8.74-8.67,0-5.71-2.93-8.67-8.74-8.67h-.84v17.34Z"/>
        <g>
          <path class="cls-3" d="M829.27,109.97l-.67,1.46h-.78l2.79-6.08,2.79,6.08h-.78l-.67-1.46h-2.68ZM830.61,106.94l-1.04,2.36h2.07l-1.04-2.36Z"/>
          <path class="cls-3" d="M834.78,106.15c0,.26-.22.47-.48.47s-.48-.21-.48-.47.22-.49.48-.49.48.22.48.49ZM834.65,111.43h-.7v-3.62h.7v3.62Z"/>
          <path class="cls-3" d="M837.21,108.64c-.08-.18-.26-.32-.46-.32s-.38.15-.38.36c0,.32.42.46.84.65.43.19.84.46.84,1.03,0,.69-.57,1.2-1.25,1.2-.53,0-1.06-.3-1.25-.81l.6-.27c.15.27.33.46.66.46.29,0,.55-.2.55-.51,0-.19-.09-.29-.26-.39l-.68-.36c-.4-.22-.7-.42-.7-.91,0-.59.48-1.05,1.07-1.05.44,0,.8.24.99.63l-.57.3Z"/>
          <path class="cls-3" d="M839.46,111.43h-.7v-6.71h.7v6.71Z"/>
          <path class="cls-3" d="M840.86,109.73c0,.62.43,1.2,1.09,1.2.53,0,.82-.27,1.08-.7l.59.33c-.34.63-.97.99-1.68.99-1.11,0-1.78-.84-1.78-1.9s.6-1.95,1.76-1.95,1.69.85,1.69,1.93v.11h-2.76ZM842.93,109.21c-.08-.54-.44-.91-1-.91s-.94.39-1.03.91h2.03Z"/>
        </g>
      </g>
      <rect class="cls-9" x="104.59" y="79.92" width="162.42" height="38.12"/>
      <rect class="cls-7" x="27.79" y="79.92" width="76.8" height="38.12"/>
      <path class="cls-6" d="M77.03,87.43l-6.63,7.9.06.06c1.05-.46,2.04-.71,3.25-.71,4.58,0,7.5,3.93,7.5,8.21,0,5.73-4.71,8.83-10.04,8.83-2.26,0-4.86-.59-6.66-2.01-1.86-1.55-3.13-4-3.13-6.41,0-3.38,1.73-6.66,3.75-9.29l5.02-6.57h6.88ZM74.89,103.07c0-2.11-1.61-3.81-3.75-3.81s-3.84,1.7-3.84,3.81,1.73,3.87,3.84,3.87,3.75-1.73,3.75-3.87Z"/>
      <g>
        <path class="cls-6" d="M42.5,110.79h-1.37l-2.66-3.83h-.47v3.83h-1.13v-9.04h1.37c.8,0,1.67.01,2.39.42.76.44,1.19,1.29,1.19,2.16,0,1.3-.86,2.37-2.17,2.53l2.85,3.93ZM38,106.03h.36c1.15,0,2.4-.22,2.4-1.66s-1.34-1.62-2.46-1.62h-.3v3.27Z"/>
        <path class="cls-6" d="M48.77,107.99c0,1.69-1.32,2.99-3,2.99s-3-1.3-3-2.99,1.32-2.99,3-2.99,3,1.3,3,2.99ZM43.85,107.99c0,1.06.85,1.96,1.92,1.96s1.92-.9,1.92-1.96-.85-1.96-1.92-1.96-1.92.89-1.92,1.96Z"/>
        <path class="cls-6" d="M51.67,108.75l1.66-3.89,1.64,3.89,1.63-3.57h1.22l-2.85,5.8-1.64-3.75-1.66,3.75-2.85-5.8h1.22l1.63,3.57Z"/>
      </g>
      <g>
        <path class="cls-3" d="M170.59,92.6c-1.43-1.74-3.59-2.79-5.78-2.79-4.91,0-7.73,4.53-7.73,9.05s2.92,8.84,7.7,8.84c2.19,0,4.39-1.15,5.81-2.79v6.09c-1.92.91-3.83,1.57-5.95,1.57-7.38,0-12.85-6.37-12.85-13.61s5.26-14.03,12.95-14.03c2.05,0,4.07.56,5.85,1.53v6.13Z"/>
        <g>
          <path class="cls-3" d="M128.69,109.31l1.65-4.3,1.65,4.3,1.63-4.18h.79l-2.42,6.06-1.65-4.28-1.65,4.28-2.42-6.06h.79l1.63,4.18Z"/>
          <path class="cls-3" d="M135.76,105.69c0,.26-.22.47-.48.47s-.48-.21-.48-.47.22-.49.48-.49.48.22.48.49ZM135.63,110.96h-.7v-3.62h.7v3.62Z"/>
          <path class="cls-3" d="M137.44,107.83h.02c.22-.39.65-.6,1.09-.6,1.02,0,1.28.69,1.28,1.57v2.16h-.7v-2.07c0-.62-.08-1.04-.8-1.04-.9,0-.9.79-.9,1.45v1.66h-.7v-3.62h.7v.49Z"/>
          <path class="cls-3" d="M143.49,110.4h-.02c-.28.41-.72.69-1.23.69-1.11,0-1.73-.92-1.73-1.96s.66-1.9,1.7-1.9c.54,0,.97.28,1.26.71h.02v-3.7h.7v6.71h-.7v-.56ZM143.53,109.15c0-.7-.42-1.3-1.18-1.3s-1.14.63-1.14,1.3.41,1.31,1.14,1.31,1.18-.6,1.18-1.31Z"/>
          <path class="cls-3" d="M148.63,109.16c0,1.09-.85,1.93-1.93,1.93s-1.93-.84-1.93-1.93.85-1.93,1.93-1.93,1.93.84,1.93,1.93ZM145.46,109.16c0,.68.55,1.26,1.24,1.26s1.24-.58,1.24-1.26-.55-1.26-1.24-1.26-1.24.57-1.24,1.26Z"/>
          <path class="cls-3" d="M150.5,109.65l1.07-2.51,1.06,2.51,1.05-2.31h.79l-1.84,3.74-1.06-2.42-1.07,2.42-1.84-3.74h.79l1.05,2.31Z"/>
        </g>
      </g>
      <g>
        <path class="cls-3" d="M206.63,85.75h7.31c7.59,0,12.67,5.68,12.67,13.16s-5.22,13.09-12.71,13.09h-7.28v-26.25ZM211.75,107.55h.84c6.3,0,8.74-3.48,8.74-8.67,0-5.71-2.93-8.67-8.74-8.67h-.84v17.34Z"/>
        <g>
          <path class="cls-3" d="M191.82,109.97l-.67,1.46h-.78l2.79-6.08,2.79,6.08h-.78l-.67-1.46h-2.68ZM193.16,106.94l-1.04,2.36h2.07l-1.04-2.36Z"/>
          <path class="cls-3" d="M197.33,106.15c0,.26-.22.47-.48.47s-.48-.21-.48-.47.22-.49.48-.49.48.22.48.49ZM197.2,111.43h-.7v-3.62h.7v3.62Z"/>
          <path class="cls-3" d="M199.76,108.64c-.08-.18-.26-.32-.46-.32s-.38.15-.38.36c0,.32.42.46.84.65.43.19.84.46.84,1.03,0,.69-.57,1.2-1.25,1.2-.53,0-1.06-.3-1.25-.81l.6-.27c.15.27.33.46.66.46.29,0,.55-.2.55-.51,0-.19-.09-.29-.26-.39l-.68-.36c-.4-.22-.7-.42-.7-.91,0-.59.48-1.05,1.07-1.05.44,0,.8.24.99.63l-.56.3Z"/>
          <path class="cls-3" d="M202.01,111.43h-.7v-6.71h.7v6.71Z"/>
          <path class="cls-3" d="M203.41,109.73c0,.62.43,1.2,1.09,1.2.53,0,.82-.27,1.08-.7l.59.33c-.34.63-.97.99-1.68.99-1.11,0-1.78-.84-1.78-1.9s.6-1.95,1.76-1.95,1.69.85,1.69,1.93v.11h-2.76ZM205.48,109.21c-.08-.54-.44-.91-1-.91s-.94.39-1.03.91h2.03Z"/>
        </g>
      </g>
      <rect class="cls-9" x="1379.49" y="82.68" width="162.42" height="38.12"/>
      <rect class="cls-7" x="1302.69" y="82.68" width="76.8" height="38.12"/>
      <path class="cls-6" d="M1344.93,95.34l-.4,2.66,1.92-.15c4.77-.37,8.27,3.53,8.27,8.36,0,2.45-1.08,4.74-3,6.32-1.86,1.49-4.49,1.95-6.81,1.95-2.66,0-5.36-.65-7.62-2.11l.9-5.73c1.8,1.61,4.09,2.69,6.5,2.69,1.92,0,3.72-1.39,3.72-3.44,0-2.82-2.7-4-5.11-4-1.55,0-3.07.31-4.46.96l2.04-12.67h12.14v5.14h-8.08Z"/>
      <g>
        <path class="cls-6" d="M1317.4,113.55h-1.37l-2.66-3.83h-.47v3.83h-1.13v-9.04h1.37c.8,0,1.67.01,2.39.42.75.44,1.19,1.29,1.19,2.16,0,1.3-.86,2.37-2.17,2.53l2.85,3.93ZM1312.91,108.79h.36c1.15,0,2.4-.22,2.4-1.66s-1.34-1.62-2.46-1.62h-.3v3.27Z"/>
        <path class="cls-6" d="M1323.67,110.76c0,1.69-1.32,2.99-3,2.99s-3-1.3-3-2.99,1.32-2.99,3-2.99,3,1.3,3,2.99ZM1318.75,110.76c0,1.06.85,1.96,1.92,1.96s1.92-.9,1.92-1.96-.85-1.96-1.92-1.96-1.92.89-1.92,1.96Z"/>
        <path class="cls-6" d="M1326.57,111.51l1.66-3.89,1.64,3.89,1.63-3.57h1.22l-2.85,5.8-1.64-3.75-1.66,3.75-2.85-5.8h1.22l1.63,3.57Z"/>
      </g>
      <g>
        <path class="cls-3" d="M1445.49,95.37c-1.43-1.74-3.59-2.79-5.78-2.79-4.91,0-7.73,4.53-7.73,9.05s2.92,8.84,7.7,8.84c2.19,0,4.39-1.15,5.82-2.79v6.09c-1.92.91-3.83,1.57-5.95,1.57-7.38,0-12.85-6.37-12.85-13.61s5.26-14.03,12.95-14.03c2.05,0,4.07.56,5.85,1.53v6.13Z"/>
        <g>
          <path class="cls-3" d="M1403.59,112.07l1.65-4.3,1.65,4.3,1.63-4.18h.79l-2.42,6.06-1.65-4.28-1.65,4.28-2.42-6.06h.79l1.63,4.18Z"/>
          <path class="cls-3" d="M1410.67,108.45c0,.26-.22.47-.48.47s-.48-.21-.48-.47.22-.49.48-.49.48.22.48.49ZM1410.53,113.73h-.7v-3.62h.7v3.62Z"/>
          <path class="cls-3" d="M1412.34,110.59h.02c.22-.39.65-.6,1.09-.6,1.02,0,1.28.69,1.28,1.57v2.16h-.7v-2.07c0-.62-.08-1.04-.8-1.04-.9,0-.9.79-.9,1.45v1.66h-.7v-3.62h.7v.49Z"/>
          <path class="cls-3" d="M1418.39,113.16h-.02c-.28.41-.72.69-1.23.69-1.11,0-1.73-.92-1.73-1.96s.66-1.9,1.7-1.9c.54,0,.97.28,1.26.71h.02v-3.7h.7v6.71h-.7v-.56ZM1418.43,111.92c0-.7-.42-1.3-1.18-1.3s-1.14.63-1.14,1.3.41,1.31,1.14,1.31,1.18-.6,1.18-1.31Z"/>
          <path class="cls-3" d="M1423.53,111.92c0,1.09-.85,1.93-1.93,1.93s-1.93-.84-1.93-1.93.85-1.93,1.93-1.93,1.93.84,1.93,1.93ZM1420.36,111.92c0,.68.55,1.26,1.24,1.26s1.24-.58,1.24-1.26-.55-1.26-1.24-1.26-1.24.57-1.24,1.26Z"/>
          <path class="cls-3" d="M1425.4,112.41l1.07-2.51,1.06,2.51,1.05-2.31h.79l-1.84,3.74-1.06-2.42-1.07,2.42-1.84-3.74h.79l1.05,2.31Z"/>
        </g>
      </g>
      <g>
        <path class="cls-3" d="M1481.53,88.51h7.31c7.59,0,12.67,5.68,12.67,13.16s-5.22,13.09-12.71,13.09h-7.28v-26.25ZM1486.65,110.31h.84c6.3,0,8.74-3.48,8.74-8.67,0-5.71-2.93-8.67-8.74-8.67h-.84v17.34Z"/>
        <g>
          <path class="cls-3" d="M1466.72,112.73l-.67,1.46h-.78l2.79-6.08,2.79,6.08h-.78l-.67-1.46h-2.68ZM1468.06,109.71l-1.04,2.36h2.07l-1.04-2.36Z"/>
          <path class="cls-3" d="M1472.23,108.92c0,.26-.22.47-.48.47s-.48-.21-.48-.47.22-.49.48-.49.48.22.48.49ZM1472.1,114.19h-.7v-3.62h.7v3.62Z"/>
          <path class="cls-3" d="M1474.67,111.4c-.08-.18-.26-.32-.46-.32s-.38.15-.38.36c0,.32.42.46.84.65.43.19.84.46.84,1.03,0,.69-.57,1.2-1.25,1.2-.53,0-1.06-.3-1.25-.81l.6-.27c.15.27.33.46.66.46.29,0,.55-.2.55-.51,0-.19-.09-.29-.26-.39l-.68-.36c-.4-.22-.7-.42-.7-.91,0-.59.48-1.05,1.07-1.05.44,0,.8.24.99.63l-.57.3Z"/>
          <path class="cls-3" d="M1476.91,114.19h-.7v-6.71h.7v6.71Z"/>
          <path class="cls-3" d="M1478.31,112.5c0,.62.43,1.2,1.09,1.2.53,0,.82-.27,1.08-.7l.59.33c-.34.63-.97.99-1.68.99-1.11,0-1.78-.84-1.78-1.9s.6-1.95,1.76-1.95,1.69.85,1.69,1.93v.11h-2.76ZM1480.38,111.97c-.08-.54-.44-.91-1-.91s-.94.39-1.03.91h2.03Z"/>
        </g>
      </g>
      <rect class="cls-6" x="464.17" y="154.51" width="10.16" height="55.05"/>
      <rect class="cls-6" x="1091.21" y="154.51" width="10.16" height="55.05"/>
    </g>
  </g>
</svg>